<svg width="1122" height="670" viewBox="0 0 1122 670" fill="none" xmlns="http://www.w3.org/2000/svg">
<path d="M971.95 224.721L859.533 317.722C878.269 339.047 889.393 367.48 889.393 398.875C889.393 466.996 834.941 522.086 767.608 522.086C728.379 522.086 693.248 503.13 670.999 473.512L580.245 360.964L523.451 291.066L487.149 246.046L459.045 211.689C386.442 135.275 270.511 102.695 151.653 153.638C94.2732 177.925 48.018 225.314 24.0122 283.365C-57.959 480.028 83.1486 668.991 266.998 668.991C303.885 668.991 334.917 660.698 347.213 656.552C450.848 623.38 501.787 533.933 516.425 506.685C526.378 520.901 535.746 534.526 545.7 548.742L579.074 589.615C604.251 615.087 633.526 635.227 666.9 648.851C731.306 675.507 808.593 677.877 887.051 642.927C942.675 618.048 986.588 573.029 1010.59 516.755C1056.85 406.576 1034.01 298.766 971.95 224.721ZM266.998 522.086C179.172 522.086 113.009 427.901 162.192 333.123C170.975 315.945 185.027 302.32 201.421 293.435C294.517 242.492 388.784 310.021 388.784 398.875C388.784 466.996 334.332 522.086 266.998 522.086Z" fill="white"/>
<path d="M603.66 247.24C670.92 247.24 725.445 192.077 725.445 124.029C725.445 55.9817 670.92 0.818359 603.66 0.818359C536.399 0.818359 481.874 55.9817 481.874 124.029C481.874 192.077 536.399 247.24 603.66 247.24Z" fill="white"/>
<path d="M769.948 483.594C811.016 483.594 844.308 449.912 844.308 408.364C844.308 366.816 811.016 333.134 769.948 333.134C728.881 333.134 695.589 366.816 695.589 408.364C695.589 449.912 728.881 483.594 769.948 483.594Z" fill="white"/>
</svg>
