<svg width="24" height="13" viewBox="0 0 24 13" fill="none" xmlns="http://www.w3.org/2000/svg">
<path d="M0.987707 9.89308C0.376374 10.4522 0.33401 11.401 0.893084 12.0123C1.45216 12.6236 2.40096 12.666 3.01229 12.1069L0.987707 9.89308ZM11.8413 2L12.836 0.877242C12.2614 0.368257 11.3954 0.375093 10.829 0.893084L11.8413 2ZM21.0053 12.1228C21.6254 12.6721 22.5734 12.6148 23.1228 11.9947C23.6721 11.3746 23.6148 10.4266 22.9947 9.87724L21.0053 12.1228ZM3.01229 12.1069L12.8536 3.10692L10.829 0.893084L0.987707 9.89308L3.01229 12.1069ZM10.8466 3.12276L21.0053 12.1228L22.9947 9.87724L12.836 0.877242L10.8466 3.12276Z" fill="#C4C4C4"/>
</svg>
