<svg width="160" height="46" viewBox="0 0 160 46" fill="none" xmlns="http://www.w3.org/2000/svg">
<g filter="url(#filter0_d)">
<rect x="6" y="3" width="148" height="34" rx="7" fill="#FFC107"/>
<path d="M39.0041 23.4425C39.1141 23.4425 39.2116 23.485 39.2966 23.57L40.0916 24.4325C39.6516 24.9775 39.1091 25.395 38.4641 25.685C37.8241 25.975 37.0541 26.12 36.1541 26.12C35.3491 26.12 34.6241 25.9825 33.9791 25.7075C33.3391 25.4325 32.7916 25.05 32.3366 24.56C31.8816 24.07 31.5316 23.485 31.2866 22.805C31.0466 22.125 30.9266 21.3825 30.9266 20.5775C30.9266 19.7625 31.0566 19.0175 31.3166 18.3425C31.5766 17.6625 31.9416 17.0775 32.4116 16.5875C32.8866 16.0975 33.4516 15.7175 34.1066 15.4475C34.7616 15.1725 35.4866 15.035 36.2816 15.035C37.0716 15.035 37.7716 15.165 38.3816 15.425C38.9966 15.685 39.5191 16.025 39.9491 16.445L39.2741 17.3825C39.2341 17.4425 39.1816 17.495 39.1166 17.54C39.0566 17.585 38.9716 17.6075 38.8616 17.6075C38.7866 17.6075 38.7091 17.5875 38.6291 17.5475C38.5491 17.5025 38.4616 17.45 38.3666 17.39C38.2716 17.325 38.1616 17.255 38.0366 17.18C37.9116 17.105 37.7666 17.0375 37.6016 16.9775C37.4366 16.9125 37.2441 16.86 37.0241 16.82C36.8091 16.775 36.5591 16.7525 36.2741 16.7525C35.7891 16.7525 35.3441 16.84 34.9391 17.015C34.5391 17.185 34.1941 17.435 33.9041 17.765C33.6141 18.09 33.3891 18.49 33.2291 18.965C33.0691 19.435 32.9891 19.9725 32.9891 20.5775C32.9891 21.1875 33.0741 21.73 33.2441 22.205C33.4191 22.68 33.6541 23.08 33.9491 23.405C34.2441 23.73 34.5916 23.98 34.9916 24.155C35.3916 24.325 35.8216 24.41 36.2816 24.41C36.5566 24.41 36.8041 24.395 37.0241 24.365C37.2491 24.335 37.4541 24.2875 37.6391 24.2225C37.8291 24.1575 38.0066 24.075 38.1716 23.975C38.3416 23.87 38.5091 23.7425 38.6741 23.5925C38.7241 23.5475 38.7766 23.5125 38.8316 23.4875C38.8866 23.4575 38.9441 23.4425 39.0041 23.4425ZM44.425 18.185C44.995 18.185 45.5125 18.2775 45.9775 18.4625C46.4475 18.6475 46.8475 18.91 47.1775 19.25C47.5125 19.59 47.77 20.005 47.95 20.495C48.13 20.985 48.22 21.5325 48.22 22.1375C48.22 22.7475 48.13 23.2975 47.95 23.7875C47.77 24.2775 47.5125 24.695 47.1775 25.04C46.8475 25.385 46.4475 25.65 45.9775 25.835C45.5125 26.02 44.995 26.1125 44.425 26.1125C43.85 26.1125 43.3275 26.02 42.8575 25.835C42.3875 25.65 41.985 25.385 41.65 25.04C41.32 24.695 41.0625 24.2775 40.8775 23.7875C40.6975 23.2975 40.6075 22.7475 40.6075 22.1375C40.6075 21.5325 40.6975 20.985 40.8775 20.495C41.0625 20.005 41.32 19.59 41.65 19.25C41.985 18.91 42.3875 18.6475 42.8575 18.4625C43.3275 18.2775 43.85 18.185 44.425 18.185ZM44.425 24.6875C45.065 24.6875 45.5375 24.4725 45.8425 24.0425C46.1525 23.6125 46.3075 22.9825 46.3075 22.1525C46.3075 21.3225 46.1525 20.69 45.8425 20.255C45.5375 19.82 45.065 19.6025 44.425 19.6025C43.775 19.6025 43.2925 19.8225 42.9775 20.2625C42.6675 20.6975 42.5125 21.3275 42.5125 22.1525C42.5125 22.9775 42.6675 23.6075 42.9775 24.0425C43.2925 24.4725 43.775 24.6875 44.425 24.6875ZM49.6333 26V18.305H50.7658C51.0058 18.305 51.1633 18.4175 51.2383 18.6425L51.3583 19.2125C51.4933 19.0625 51.6333 18.925 51.7783 18.8C51.9283 18.675 52.0858 18.5675 52.2508 18.4775C52.4208 18.3875 52.6008 18.3175 52.7908 18.2675C52.9858 18.2125 53.1983 18.185 53.4283 18.185C53.9133 18.185 54.3108 18.3175 54.6208 18.5825C54.9358 18.8425 55.1708 19.19 55.3258 19.625C55.4458 19.37 55.5958 19.1525 55.7758 18.9725C55.9558 18.7875 56.1533 18.6375 56.3683 18.5225C56.5833 18.4075 56.8108 18.3225 57.0508 18.2675C57.2958 18.2125 57.5408 18.185 57.7858 18.185C58.2108 18.185 58.5883 18.25 58.9183 18.38C59.2483 18.51 59.5258 18.7 59.7508 18.95C59.9758 19.2 60.1458 19.505 60.2608 19.865C60.3808 20.225 60.4408 20.6375 60.4408 21.1025V26H58.5883V21.1025C58.5883 20.6125 58.4808 20.245 58.2658 20C58.0508 19.75 57.7358 19.625 57.3208 19.625C57.1308 19.625 56.9533 19.6575 56.7883 19.7225C56.6283 19.7875 56.4858 19.8825 56.3608 20.0075C56.2408 20.1275 56.1458 20.28 56.0758 20.465C56.0058 20.65 55.9708 20.8625 55.9708 21.1025V26H54.1108V21.1025C54.1108 20.5875 54.0058 20.2125 53.7958 19.9775C53.5908 19.7425 53.2883 19.625 52.8883 19.625C52.6183 19.625 52.3658 19.6925 52.1308 19.8275C51.9008 19.9575 51.6858 20.1375 51.4858 20.3675V26H49.6333ZM64.0541 24.005C64.2641 24.26 64.4916 24.44 64.7366 24.545C64.9866 24.65 65.2566 24.7025 65.5466 24.7025C65.8266 24.7025 66.0791 24.65 66.3041 24.545C66.5291 24.44 66.7191 24.28 66.8741 24.065C67.0341 23.85 67.1566 23.58 67.2416 23.255C67.3266 22.925 67.3691 22.5375 67.3691 22.0925C67.3691 21.6425 67.3316 21.2625 67.2566 20.9525C67.1866 20.6375 67.0841 20.3825 66.9491 20.1875C66.8141 19.9925 66.6491 19.85 66.4541 19.76C66.2641 19.67 66.0466 19.625 65.8016 19.625C65.4166 19.625 65.0891 19.7075 64.8191 19.8725C64.5491 20.0325 64.2941 20.26 64.0541 20.555V24.005ZM63.9566 19.355C64.2716 19 64.6291 18.7125 65.0291 18.4925C65.4291 18.2725 65.8991 18.1625 66.4391 18.1625C66.8591 18.1625 67.2416 18.25 67.5866 18.425C67.9366 18.6 68.2366 18.855 68.4866 19.19C68.7416 19.52 68.9366 19.93 69.0716 20.42C69.2116 20.905 69.2816 21.4625 69.2816 22.0925C69.2816 22.6675 69.2041 23.2 69.0491 23.69C68.8941 24.18 68.6716 24.605 68.3816 24.965C68.0966 25.325 67.7491 25.6075 67.3391 25.8125C66.9341 26.0125 66.4791 26.1125 65.9741 26.1125C65.5441 26.1125 65.1766 26.0475 64.8716 25.9175C64.5666 25.7825 64.2941 25.5975 64.0541 25.3625V28.5125H62.2016V18.305H63.3341C63.5741 18.305 63.7316 18.4175 63.8066 18.6425L63.9566 19.355ZM72.4745 19.64C72.7145 19.18 72.9995 18.82 73.3295 18.56C73.6595 18.295 74.0495 18.1625 74.4995 18.1625C74.8545 18.1625 75.1395 18.24 75.3545 18.395L75.2345 19.7825C75.2095 19.8725 75.172 19.9375 75.122 19.9775C75.077 20.0125 75.0145 20.03 74.9345 20.03C74.8595 20.03 74.747 20.0175 74.597 19.9925C74.452 19.9675 74.3095 19.955 74.1695 19.955C73.9645 19.955 73.782 19.985 73.622 20.045C73.462 20.105 73.317 20.1925 73.187 20.3075C73.062 20.4175 72.9495 20.5525 72.8495 20.7125C72.7545 20.8725 72.6645 21.055 72.5795 21.26V26H70.727V18.305H71.8145C72.0045 18.305 72.137 18.34 72.212 18.41C72.287 18.475 72.337 18.595 72.362 18.77L72.4745 19.64ZM80.2852 22.715C79.7502 22.74 79.3002 22.7875 78.9352 22.8575C78.5702 22.9225 78.2777 23.0075 78.0577 23.1125C77.8377 23.2175 77.6802 23.34 77.5852 23.48C77.4902 23.62 77.4427 23.7725 77.4427 23.9375C77.4427 24.2625 77.5377 24.495 77.7277 24.635C77.9227 24.775 78.1752 24.845 78.4852 24.845C78.8652 24.845 79.1927 24.7775 79.4677 24.6425C79.7477 24.5025 80.0202 24.2925 80.2852 24.0125V22.715ZM76.0402 19.3775C76.9252 18.5675 77.9902 18.1625 79.2352 18.1625C79.6852 18.1625 80.0877 18.2375 80.4427 18.3875C80.7977 18.5325 81.0977 18.7375 81.3427 19.0025C81.5877 19.2625 81.7727 19.575 81.8977 19.94C82.0277 20.305 82.0927 20.705 82.0927 21.14V26H81.2527C81.0777 26 80.9427 25.975 80.8477 25.925C80.7527 25.87 80.6777 25.7625 80.6227 25.6025L80.4577 25.0475C80.2627 25.2225 80.0727 25.3775 79.8877 25.5125C79.7027 25.6425 79.5102 25.7525 79.3102 25.8425C79.1102 25.9325 78.8952 26 78.6652 26.045C78.4402 26.095 78.1902 26.12 77.9152 26.12C77.5902 26.12 77.2902 26.0775 77.0152 25.9925C76.7402 25.9025 76.5027 25.77 76.3027 25.595C76.1027 25.42 75.9477 25.2025 75.8377 24.9425C75.7277 24.6825 75.6727 24.38 75.6727 24.035C75.6727 23.84 75.7052 23.6475 75.7702 23.4575C75.8352 23.2625 75.9402 23.0775 76.0852 22.9025C76.2352 22.7275 76.4277 22.5625 76.6627 22.4075C76.8977 22.2525 77.1852 22.1175 77.5252 22.0025C77.8702 21.8875 78.2702 21.795 78.7252 21.725C79.1802 21.65 79.7002 21.605 80.2852 21.59V21.14C80.2852 20.625 80.1752 20.245 79.9552 20C79.7352 19.75 79.4177 19.625 79.0027 19.625C78.7027 19.625 78.4527 19.66 78.2527 19.73C78.0577 19.8 77.8852 19.88 77.7352 19.97C77.5852 20.055 77.4477 20.1325 77.3227 20.2025C77.2027 20.2725 77.0677 20.3075 76.9177 20.3075C76.7877 20.3075 76.6777 20.275 76.5877 20.21C76.4977 20.14 76.4252 20.06 76.3702 19.97L76.0402 19.3775ZM85.5849 19.64C85.8249 19.18 86.1099 18.82 86.4399 18.56C86.7699 18.295 87.1599 18.1625 87.6099 18.1625C87.9649 18.1625 88.2499 18.24 88.4649 18.395L88.3449 19.7825C88.3199 19.8725 88.2824 19.9375 88.2324 19.9775C88.1874 20.0125 88.1249 20.03 88.0449 20.03C87.9699 20.03 87.8574 20.0175 87.7074 19.9925C87.5624 19.9675 87.4199 19.955 87.2799 19.955C87.0749 19.955 86.8924 19.985 86.7324 20.045C86.5724 20.105 86.4274 20.1925 86.2974 20.3075C86.1724 20.4175 86.0599 20.5525 85.9599 20.7125C85.8649 20.8725 85.7749 21.055 85.6899 21.26V26H83.8374V18.305H84.9249C85.1149 18.305 85.2474 18.34 85.3224 18.41C85.3974 18.475 85.4474 18.595 85.4724 18.77L85.5849 19.64ZM96.8233 22.715C96.2883 22.74 95.8383 22.7875 95.4733 22.8575C95.1083 22.9225 94.8158 23.0075 94.5958 23.1125C94.3758 23.2175 94.2183 23.34 94.1233 23.48C94.0283 23.62 93.9808 23.7725 93.9808 23.9375C93.9808 24.2625 94.0758 24.495 94.2658 24.635C94.4608 24.775 94.7133 24.845 95.0233 24.845C95.4033 24.845 95.7308 24.7775 96.0058 24.6425C96.2858 24.5025 96.5583 24.2925 96.8233 24.0125V22.715ZM92.5783 19.3775C93.4633 18.5675 94.5283 18.1625 95.7733 18.1625C96.2233 18.1625 96.6258 18.2375 96.9808 18.3875C97.3358 18.5325 97.6358 18.7375 97.8808 19.0025C98.1258 19.2625 98.3108 19.575 98.4358 19.94C98.5658 20.305 98.6308 20.705 98.6308 21.14V26H97.7908C97.6158 26 97.4808 25.975 97.3858 25.925C97.2908 25.87 97.2158 25.7625 97.1608 25.6025L96.9958 25.0475C96.8008 25.2225 96.6108 25.3775 96.4258 25.5125C96.2408 25.6425 96.0483 25.7525 95.8483 25.8425C95.6483 25.9325 95.4333 26 95.2033 26.045C94.9783 26.095 94.7283 26.12 94.4533 26.12C94.1283 26.12 93.8283 26.0775 93.5533 25.9925C93.2783 25.9025 93.0408 25.77 92.8408 25.595C92.6408 25.42 92.4858 25.2025 92.3758 24.9425C92.2658 24.6825 92.2108 24.38 92.2108 24.035C92.2108 23.84 92.2433 23.6475 92.3083 23.4575C92.3733 23.2625 92.4783 23.0775 92.6233 22.9025C92.7733 22.7275 92.9658 22.5625 93.2008 22.4075C93.4358 22.2525 93.7233 22.1175 94.0633 22.0025C94.4083 21.8875 94.8083 21.795 95.2633 21.725C95.7183 21.65 96.2383 21.605 96.8233 21.59V21.14C96.8233 20.625 96.7133 20.245 96.4933 20C96.2733 19.75 95.9558 19.625 95.5408 19.625C95.2408 19.625 94.9908 19.66 94.7908 19.73C94.5958 19.8 94.4233 19.88 94.2733 19.97C94.1233 20.055 93.9858 20.1325 93.8608 20.2025C93.7408 20.2725 93.6058 20.3075 93.4558 20.3075C93.3258 20.3075 93.2158 20.275 93.1258 20.21C93.0358 20.14 92.9633 20.06 92.9083 19.97L92.5783 19.3775ZM102.228 19.13C102.528 18.85 102.858 18.6225 103.218 18.4475C103.578 18.2725 104 18.185 104.485 18.185C104.905 18.185 105.278 18.2575 105.603 18.4025C105.928 18.5425 106.198 18.7425 106.413 19.0025C106.633 19.2575 106.798 19.565 106.908 19.925C107.023 20.28 107.08 20.6725 107.08 21.1025V26H105.228V21.1025C105.228 20.6325 105.12 20.27 104.905 20.015C104.69 19.755 104.363 19.625 103.923 19.625C103.603 19.625 103.303 19.6975 103.023 19.8425C102.743 19.9875 102.478 20.185 102.228 20.435V26H100.375V14.855H102.228V19.13ZM112.247 18.185C112.817 18.185 113.335 18.2775 113.8 18.4625C114.27 18.6475 114.67 18.91 115 19.25C115.335 19.59 115.592 20.005 115.772 20.495C115.952 20.985 116.042 21.5325 116.042 22.1375C116.042 22.7475 115.952 23.2975 115.772 23.7875C115.592 24.2775 115.335 24.695 115 25.04C114.67 25.385 114.27 25.65 113.8 25.835C113.335 26.02 112.817 26.1125 112.247 26.1125C111.672 26.1125 111.15 26.02 110.68 25.835C110.21 25.65 109.807 25.385 109.472 25.04C109.142 24.695 108.885 24.2775 108.7 23.7875C108.52 23.2975 108.43 22.7475 108.43 22.1375C108.43 21.5325 108.52 20.985 108.7 20.495C108.885 20.005 109.142 19.59 109.472 19.25C109.807 18.91 110.21 18.6475 110.68 18.4625C111.15 18.2775 111.672 18.185 112.247 18.185ZM112.247 24.6875C112.887 24.6875 113.36 24.4725 113.665 24.0425C113.975 23.6125 114.13 22.9825 114.13 22.1525C114.13 21.3225 113.975 20.69 113.665 20.255C113.36 19.82 112.887 19.6025 112.247 19.6025C111.597 19.6025 111.115 19.8225 110.8 20.2625C110.49 20.6975 110.335 21.3275 110.335 22.1525C110.335 22.9775 110.49 23.6075 110.8 24.0425C111.115 24.4725 111.597 24.6875 112.247 24.6875ZM119.203 19.64C119.443 19.18 119.728 18.82 120.058 18.56C120.388 18.295 120.778 18.1625 121.228 18.1625C121.583 18.1625 121.868 18.24 122.083 18.395L121.963 19.7825C121.938 19.8725 121.901 19.9375 121.851 19.9775C121.806 20.0125 121.743 20.03 121.663 20.03C121.588 20.03 121.476 20.0175 121.326 19.9925C121.181 19.9675 121.038 19.955 120.898 19.955C120.693 19.955 120.511 19.985 120.351 20.045C120.191 20.105 120.046 20.1925 119.916 20.3075C119.791 20.4175 119.678 20.5525 119.578 20.7125C119.483 20.8725 119.393 21.055 119.308 21.26V26H117.456V18.305H118.543C118.733 18.305 118.866 18.34 118.941 18.41C119.016 18.475 119.066 18.595 119.091 18.77L119.203 19.64ZM127.014 22.715C126.479 22.74 126.029 22.7875 125.664 22.8575C125.299 22.9225 125.006 23.0075 124.786 23.1125C124.566 23.2175 124.409 23.34 124.314 23.48C124.219 23.62 124.171 23.7725 124.171 23.9375C124.171 24.2625 124.266 24.495 124.456 24.635C124.651 24.775 124.904 24.845 125.214 24.845C125.594 24.845 125.921 24.7775 126.196 24.6425C126.476 24.5025 126.749 24.2925 127.014 24.0125V22.715ZM122.769 19.3775C123.654 18.5675 124.719 18.1625 125.964 18.1625C126.414 18.1625 126.816 18.2375 127.171 18.3875C127.526 18.5325 127.826 18.7375 128.071 19.0025C128.316 19.2625 128.501 19.575 128.626 19.94C128.756 20.305 128.821 20.705 128.821 21.14V26H127.981C127.806 26 127.671 25.975 127.576 25.925C127.481 25.87 127.406 25.7625 127.351 25.6025L127.186 25.0475C126.991 25.2225 126.801 25.3775 126.616 25.5125C126.431 25.6425 126.239 25.7525 126.039 25.8425C125.839 25.9325 125.624 26 125.394 26.045C125.169 26.095 124.919 26.12 124.644 26.12C124.319 26.12 124.019 26.0775 123.744 25.9925C123.469 25.9025 123.231 25.77 123.031 25.595C122.831 25.42 122.676 25.2025 122.566 24.9425C122.456 24.6825 122.401 24.38 122.401 24.035C122.401 23.84 122.434 23.6475 122.499 23.4575C122.564 23.2625 122.669 23.0775 122.814 22.9025C122.964 22.7275 123.156 22.5625 123.391 22.4075C123.626 22.2525 123.914 22.1175 124.254 22.0025C124.599 21.8875 124.999 21.795 125.454 21.725C125.909 21.65 126.429 21.605 127.014 21.59V21.14C127.014 20.625 126.904 20.245 126.684 20C126.464 19.75 126.146 19.625 125.731 19.625C125.431 19.625 125.181 19.66 124.981 19.73C124.786 19.8 124.614 19.88 124.464 19.97C124.314 20.055 124.176 20.1325 124.051 20.2025C123.931 20.2725 123.796 20.3075 123.646 20.3075C123.516 20.3075 123.406 20.275 123.316 20.21C123.226 20.14 123.154 20.06 123.099 19.97L122.769 19.3775Z" fill="white"/>
</g>
<defs>
<filter id="filter0_d" x="0" y="0" width="160" height="46" filterUnits="userSpaceOnUse" color-interpolation-filters="sRGB">
<feFlood flood-opacity="0" result="BackgroundImageFix"/>
<feColorMatrix in="SourceAlpha" type="matrix" values="0 0 0 0 0 0 0 0 0 0 0 0 0 0 0 0 0 0 127 0"/>
<feOffset dy="3"/>
<feGaussianBlur stdDeviation="3"/>
<feColorMatrix type="matrix" values="0 0 0 0 0 0 0 0 0 0 0 0 0 0 0 0 0 0 0.25 0"/>
<feBlend mode="normal" in2="BackgroundImageFix" result="effect1_dropShadow"/>
<feBlend mode="normal" in="SourceGraphic" in2="effect1_dropShadow" result="shape"/>
</filter>
</defs>
</svg>
