<svg width="11" height="11" viewBox="0 0 11 11" fill="none" xmlns="http://www.w3.org/2000/svg">
<path d="M5.67349 6.47255L9.30487 10.1121C9.46426 10.2715 9.68044 10.361 9.90585 10.361C10.1313 10.361 10.3474 10.2715 10.5068 10.1121C10.6662 9.95267 10.7557 9.73649 10.7557 9.51108C10.7557 9.28567 10.6662 9.0695 10.5068 8.91012L6.86693 5.27902L10.5065 1.64765C10.6659 1.48825 10.7554 1.27207 10.7554 1.04666C10.7554 0.821254 10.6658 0.60508 10.5064 0.445698C10.3471 0.286316 10.1309 0.196781 9.90547 0.196789C9.68006 0.196798 9.46388 0.286349 9.3045 0.445743L5.6734 4.08558L2.04203 0.446018C1.96334 0.366685 1.86972 0.303719 1.76657 0.26075C1.66342 0.217781 1.55279 0.19566 1.44105 0.195665C1.32931 0.195669 1.21867 0.217798 1.11553 0.260774C1.01238 0.303751 0.918767 0.366725 0.840082 0.446063C0.760749 0.524754 0.697781 0.618374 0.654812 0.721522C0.611843 0.824671 0.589724 0.935306 0.589728 1.04705C0.589732 1.15879 0.61186 1.26942 0.654836 1.37257C0.697814 1.47571 0.760788 1.56933 0.840128 1.64801L4.47996 5.27911L0.840402 8.91048C0.761069 8.98918 0.698101 9.08279 0.655132 9.18594C0.612163 9.28909 0.590044 9.39973 0.590048 9.51147C0.590052 9.62321 0.61218 9.73384 0.655156 9.83699C0.698134 9.94013 0.761108 10.0337 0.840448 10.1124C0.919138 10.1918 1.01276 10.2547 1.11591 10.2977C1.21905 10.3407 1.32969 10.3628 1.44143 10.3628C1.55317 10.3628 1.6638 10.3407 1.76695 10.2977C1.8701 10.2547 1.96371 10.1917 2.04239 10.1124L5.67349 6.47255Z" fill="white"/>
</svg>
