<svg width="66" height="66" viewBox="0 0 66 66" fill="none" xmlns="http://www.w3.org/2000/svg">
<g filter="url(#filter0_d)">
<circle cx="33" cy="30" r="26" stroke="#1DAEFF" stroke-width="2"/>
</g>
<path d="M34.4482 27.552C34.4482 27.0187 34.8805 26.5864 35.4138 26.5864H40.2414C40.7747 26.5864 41.207 27.0187 41.207 27.552C41.207 28.0852 40.7747 28.5175 40.2414 28.5175H35.4138C34.8805 28.5175 34.4482 28.0852 34.4482 27.552Z" fill="#1DAEFF"/>
<path d="M34.4482 22.7243C34.4482 22.1911 34.8805 21.7588 35.4138 21.7588H44.1036C44.6368 21.7588 45.0691 22.1911 45.0691 22.7243C45.0691 23.2576 44.6368 23.6899 44.1036 23.6899H35.4138C34.8805 23.6899 34.4482 23.2576 34.4482 22.7243Z" fill="#1DAEFF"/>
<path d="M34.4482 17.8967C34.4482 17.3634 34.8805 16.9312 35.4138 16.9312H44.1036C44.6368 16.9312 45.0691 17.3634 45.0691 17.8967C45.0691 18.4299 44.6368 18.8622 44.1036 18.8622H35.4138C34.8805 18.8622 34.4482 18.4299 34.4482 17.8967Z" fill="#1DAEFF"/>
<path d="M28.7248 44.0001H24.8626C24.3509 43.9986 23.8607 43.7946 23.4988 43.4328C23.137 43.071 22.9331 42.5807 22.9316 42.069V35.3103C22.4199 35.3088 21.9296 35.1048 21.5678 34.743C21.206 34.3812 21.002 33.8909 21.0005 33.3792V27.5861C20.9934 27.2037 21.0635 26.8239 21.2066 26.4693C21.3496 26.1146 21.5627 25.7925 21.8331 25.5221C22.1035 25.2517 22.4257 25.0386 22.7803 24.8955C23.1349 24.7525 23.5148 24.6824 23.8971 24.6895H29.6903C30.0726 24.6824 30.4525 24.7525 30.8071 24.8955C31.1617 25.0386 31.4839 25.2517 31.7542 25.5221C32.0246 25.7925 32.2377 26.1146 32.3808 26.4693C32.5239 26.8239 32.594 27.2037 32.5869 27.5861V33.3792C32.5854 33.8909 32.3814 34.3812 32.0196 34.743C31.6578 35.1048 31.1675 35.3088 30.6558 35.3103V42.069C30.6543 42.5807 30.4503 43.071 30.0885 43.4328C29.7267 43.7946 29.2364 43.9986 28.7248 44.0001ZM23.8971 26.6205C23.7683 26.6128 23.6393 26.6324 23.5186 26.6782C23.398 26.724 23.2884 26.7949 23.1972 26.8861C23.1059 26.9774 23.035 27.0869 22.9893 27.2076C22.9435 27.3282 22.9238 27.4572 22.9316 27.5861V33.3792H24.8626V42.069H28.7248V33.3792H30.6558V27.5861C30.6636 27.4572 30.6439 27.3282 30.5981 27.2076C30.5523 27.0869 30.4815 26.9774 30.3902 26.8861C30.299 26.7949 30.1894 26.724 30.0687 26.6782C29.9481 26.6324 29.8191 26.6128 29.6903 26.6205H23.8971Z" fill="#1DAEFF"/>
<path d="M26.7928 23.7243C26.0289 23.7243 25.2822 23.4978 24.6471 23.0734C24.012 22.649 23.517 22.0458 23.2247 21.3401C22.9323 20.6344 22.8559 19.8578 23.0049 19.1087C23.1539 18.3595 23.5217 17.6713 24.0619 17.1312C24.602 16.5911 25.2902 16.2232 26.0393 16.0742C26.7885 15.9252 27.5651 16.0017 28.2708 16.294C28.9765 16.5863 29.5797 17.0813 30.004 17.7164C30.4284 18.3516 30.6549 19.0983 30.6549 19.8621C30.6519 20.8855 30.244 21.8661 29.5204 22.5897C28.7967 23.3133 27.8162 23.7212 26.7928 23.7243ZM26.7928 17.9311C26.4109 17.9311 26.0375 18.0443 25.72 18.2565C25.4024 18.4687 25.1549 18.7703 25.0087 19.1231C24.8626 19.476 24.8243 19.8643 24.8988 20.2389C24.9733 20.6135 25.1573 20.9575 25.4273 21.2276C25.6974 21.4977 26.0415 21.6816 26.4161 21.7561C26.7907 21.8306 27.1789 21.7924 27.5318 21.6462C27.8846 21.5 28.1862 21.2525 28.3984 20.935C28.6106 20.6174 28.7239 20.2441 28.7239 19.8621C28.7223 19.3505 28.5184 18.8602 28.1566 18.4984C27.7948 18.1365 27.3045 17.9326 26.7928 17.9311Z" fill="#1DAEFF"/>
<defs>
<filter id="filter0_d" x="0" y="0" width="66" height="66" filterUnits="userSpaceOnUse" color-interpolation-filters="sRGB">
<feFlood flood-opacity="0" result="BackgroundImageFix"/>
<feColorMatrix in="SourceAlpha" type="matrix" values="0 0 0 0 0 0 0 0 0 0 0 0 0 0 0 0 0 0 127 0"/>
<feOffset dy="3"/>
<feGaussianBlur stdDeviation="3"/>
<feColorMatrix type="matrix" values="0 0 0 0 0 0 0 0 0 0 0 0 0 0 0 0 0 0 0.25 0"/>
<feBlend mode="normal" in2="BackgroundImageFix" result="effect1_dropShadow"/>
<feBlend mode="normal" in="SourceGraphic" in2="effect1_dropShadow" result="shape"/>
</filter>
</defs>
</svg>
