<svg width="47" height="51" viewBox="0 0 47 51" fill="none" xmlns="http://www.w3.org/2000/svg">
<path d="M41.8906 18.1231V15.4629C41.8906 14.3583 40.9952 13.4629 39.8906 13.4629H33.7167M18.3906 25.8902V15.4629C18.3906 14.3583 19.2861 13.4629 20.3906 13.4629H24.2656H26.5645" stroke="white" stroke-linecap="round" stroke-linejoin="round"/>
<path d="M39.8477 18.1232V16.5342C39.8477 15.9819 39.3999 15.5342 38.8477 15.5342H21.4346C20.8823 15.5342 20.4346 15.9819 20.4346 16.5342V25.8902" stroke="white" stroke-linecap="round" stroke-linejoin="round"/>
<rect x="34.7305" y="20.1763" width="11.7698" height="22.4594" rx="1.08621" stroke="white"/>
<path d="M35.0273 23.3159H46.2009" stroke="white"/>
<path d="M35.0273 39.0903H46.2009" stroke="white"/>
<mask id="path-6-inside-1" fill="white">
<ellipse cx="40.6145" cy="40.7088" rx="0.798113" ry="0.808944"/>
</mask>
<path d="M40.4126 40.7088C40.4126 40.6161 40.4904 40.5178 40.6145 40.5178V42.5178C41.6203 42.5178 42.4126 41.6951 42.4126 40.7088H40.4126ZM40.6145 40.5178C40.7387 40.5178 40.8164 40.6161 40.8164 40.7088H38.8164C38.8164 41.6951 39.6088 42.5178 40.6145 42.5178V40.5178ZM40.8164 40.7088C40.8164 40.8016 40.7387 40.8999 40.6145 40.8999V38.8999C39.6088 38.8999 38.8164 39.7225 38.8164 40.7088H40.8164ZM40.6145 40.8999C40.4904 40.8999 40.4126 40.8016 40.4126 40.7088H42.4126C42.4126 39.7225 41.6203 38.8999 40.6145 38.8999V40.8999Z" fill="white" mask="url(#path-6-inside-1)"/>
<path d="M39.0195 21.6978H42.212" stroke="white" stroke-linecap="round" stroke-linejoin="round"/>
<path d="M18.6317 27.7119H7.42383C6.31926 27.7119 5.42383 28.6073 5.42383 29.7119V46.1564" stroke="white"/>
<path d="M16.348 29.5137H11.7502H8.15234C7.60006 29.5137 7.15234 29.9614 7.15234 30.5137V46.6012" stroke="white"/>
<path d="M14.3037 29.5139L21.9667 29.5137H29.1406C29.6929 29.5137 30.1406 29.9614 30.1406 30.5137V46.6014" stroke="white"/>
<path d="M18.632 46.1555H1.59902C1.29439 46.1555 1.05871 46.4266 1.13691 46.721C1.57911 48.3859 2.9482 49.9981 5.82436 49.9981C9.02628 49.9981 15.6969 49.9981 18.632 49.9981" stroke="white"/>
<path d="M15.3262 46.4238C15.05 46.4238 14.8262 46.6477 14.8262 46.9238C14.8262 47.2 15.05 47.4238 15.3262 47.4238V46.4238ZM15.3262 47.4238H19.7288V46.4238H15.3262V47.4238Z" fill="white"/>
<path d="M18.6319 27.7117H29.8398C30.9444 27.7117 31.8398 28.6071 31.8398 29.7117V46.1562" stroke="white"/>
<path d="M18.6316 46.1553H35.6646C35.9693 46.1553 36.205 46.4263 36.1268 46.7207C35.6846 48.3856 34.3155 49.9979 31.4393 49.9979C28.2374 49.9979 21.5667 49.9979 18.6316 49.9979" stroke="white"/>
<path d="M22.793 46.4236C23.0691 46.4236 23.293 46.6474 23.293 46.9236C23.293 47.1997 23.0691 47.4236 22.793 47.4236V46.4236ZM22.793 47.4236H18.3903V46.4236H22.793V47.4236Z" fill="white"/>
<rect x="0.5" y="7.74927" width="13.3044" height="13.4985" rx="0.5" stroke="white"/>
<mask id="path-18-inside-2" fill="white">
<rect x="2.04297" y="9.32031" width="10.2174" height="10.356" rx="0.5"/>
</mask>
<rect x="2.04297" y="9.32031" width="10.2174" height="10.356" rx="0.5" stroke="white" stroke-width="2" mask="url(#path-18-inside-2)"/>
<path d="M14.3047 16.5693H17.8808" stroke="white"/>
<path d="M14.3047 18.6406H17.8808" stroke="white"/>
<path d="M20.074 33.1399L17.3572 42.959" stroke="white" stroke-linecap="round" stroke-linejoin="round"/>
<path d="M15.3267 40.3885L13.2832 38.3173L15.3267 36.2461" stroke="white" stroke-linecap="round" stroke-linejoin="round"/>
<path d="M22.478 36.2463L24.5215 38.3175L22.478 40.3887" stroke="white" stroke-linecap="round" stroke-linejoin="round"/>
<path d="M41.5124 27.9613L39.62 34.6737" stroke="white" stroke-width="0.764195" stroke-linecap="round" stroke-linejoin="round"/>
<path d="M38.2024 32.7548L36.7832 31.3164L38.2024 29.8779" stroke="white" stroke-width="0.764195" stroke-linecap="round" stroke-linejoin="round"/>
<path d="M43.405 29.878L44.8242 31.3164L43.405 32.7549" stroke="white" stroke-width="0.764195" stroke-linecap="round" stroke-linejoin="round"/>
<path d="M36.8624 9.09148L35.8168 8.18532C35.8662 7.87788 35.8918 7.56396 35.8918 7.25004C35.8918 6.93613 35.8662 6.62221 35.8168 6.31476L36.8624 5.40861C36.9413 5.34017 36.9978 5.24902 37.0243 5.14728C37.0508 5.04553 37.0461 4.93802 37.0109 4.83903L36.9965 4.79695C36.7087 3.98146 36.2776 3.22548 35.7242 2.56555L35.6954 2.53157C35.6283 2.45156 35.5388 2.39404 35.4388 2.3666C35.3387 2.33915 35.2329 2.34308 35.1351 2.37785L33.8371 2.84549C33.3582 2.44743 32.8234 2.13351 32.2455 1.91344L31.9948 0.538029C31.9759 0.434537 31.9264 0.339326 31.8528 0.265047C31.7792 0.190767 31.6851 0.140934 31.5829 0.122169L31.5398 0.114078C30.7081 -0.0380261 29.8332 -0.0380261 29.0014 0.114078L28.9583 0.122169C28.8561 0.140934 28.762 0.190767 28.6884 0.265047C28.6149 0.339326 28.5653 0.434537 28.5464 0.538029L28.2942 1.91991C27.7209 2.14003 27.187 2.45378 26.7137 2.84872L25.4062 2.37785C25.3084 2.3428 25.2025 2.33874 25.1024 2.36619C25.0023 2.39365 24.9128 2.45133 24.8458 2.53157L24.8171 2.56555C24.2643 3.22595 23.8333 3.9818 23.5447 4.79695L23.5303 4.83903C23.4585 5.04129 23.5176 5.26783 23.6788 5.40861L24.7373 6.32447C24.6878 6.62868 24.6638 6.93936 24.6638 7.24843C24.6638 7.55911 24.6878 7.86979 24.7373 8.17238L23.6788 9.08824C23.5999 9.15668 23.5435 9.24783 23.517 9.34957C23.4904 9.45132 23.4951 9.55883 23.5303 9.65783L23.5447 9.6999C23.8337 10.5154 24.2615 11.2679 24.8171 11.9313L24.8458 11.9653C24.913 12.0453 25.0024 12.1028 25.1025 12.1303C25.2025 12.1577 25.3084 12.1538 25.4062 12.119L26.7137 11.6481C27.1894 12.0446 27.7211 12.3585 28.2942 12.5769L28.5464 13.9588C28.5653 14.0623 28.6149 14.1575 28.6884 14.2318C28.762 14.3061 28.8561 14.3559 28.9583 14.3747L29.0014 14.3828C29.8408 14.5357 30.7004 14.5357 31.5398 14.3828L31.5829 14.3747C31.6851 14.3559 31.7792 14.3061 31.8528 14.2318C31.9264 14.1575 31.9759 14.0623 31.9948 13.9588L32.2455 12.5834C32.8231 12.3639 33.361 12.049 33.8371 11.6514L35.1351 12.119C35.2328 12.1541 35.3388 12.1581 35.4389 12.1307C35.539 12.1032 35.6284 12.0455 35.6954 11.9653L35.7242 11.9313C36.2797 11.2662 36.7076 10.5154 36.9965 9.6999L37.0109 9.65783C37.0828 9.4588 37.0237 9.23226 36.8624 9.09148ZM34.6833 6.5057C34.7232 6.75004 34.7439 7.00085 34.7439 7.25166C34.7439 7.50247 34.7232 7.75328 34.6833 7.99762L34.5779 8.64649L35.7705 9.68048C35.5897 10.1026 35.3615 10.5023 35.0904 10.8714L33.6088 10.3391L33.1075 10.7565C32.726 11.0737 32.3013 11.3229 31.8415 11.4976L31.2333 11.729L30.9475 13.2986C30.4966 13.3504 30.0414 13.3504 29.5905 13.2986L29.3048 11.7258L28.7013 11.4912C28.2463 11.3164 27.8232 11.0672 27.4449 10.7517L26.9436 10.3326L25.4525 10.8698C25.1811 10.4993 24.9544 10.0996 24.7724 9.67886L25.9777 8.63517L25.874 7.98791C25.8356 7.74681 25.8149 7.49762 25.8149 7.25166C25.8149 7.00409 25.834 6.75651 25.874 6.51541L25.9777 5.86816L24.7724 4.82446C24.9528 4.40213 25.1811 4.00407 25.4525 3.63352L26.9436 4.17074L27.4449 3.75164C27.8232 3.43611 28.2463 3.18691 28.7013 3.01215L29.3064 2.78076L29.5921 1.20794C30.0407 1.15616 30.4989 1.15616 30.9491 1.20794L31.2349 2.77752L31.8431 3.00892C32.3013 3.18368 32.7276 3.43287 33.1091 3.75002L33.6104 4.1675L35.092 3.63514C35.3634 4.00569 35.5901 4.40537 35.7721 4.82608L34.5795 5.86007L34.6833 6.5057ZM30.2722 4.24193C28.7205 4.24193 27.4624 5.51702 27.4624 7.08985C27.4624 8.66267 28.7205 9.93776 30.2722 9.93776C31.824 9.93776 33.082 8.66267 33.082 7.08985C33.082 5.51702 31.824 4.24193 30.2722 4.24193ZM31.5366 8.37141C31.3708 8.53998 31.1737 8.67366 30.9567 8.76474C30.7397 8.85583 30.5071 8.90253 30.2722 8.90216C29.7949 8.90216 29.3463 8.71284 29.0078 8.37141C28.8415 8.20332 28.7096 8.00356 28.6198 7.78362C28.5299 7.56368 28.4838 7.3279 28.4842 7.08985C28.4842 6.60603 28.671 6.15133 29.0078 5.80829C29.3463 5.46524 29.7949 5.27754 30.2722 5.27754C30.7496 5.27754 31.1982 5.46524 31.5366 5.80829C31.7029 5.97638 31.8348 6.17614 31.9247 6.39608C32.0146 6.61602 32.0606 6.85179 32.0603 7.08985C32.0603 7.57367 31.8735 8.02837 31.5366 8.37141Z" fill="white"/>
<path d="M5.10938 14.4989L6.64198 16.0524L9.7072 12.4277" stroke="white" stroke-linecap="round" stroke-linejoin="round"/>
</svg>
