<svg width="47" height="51" viewBox="0 0 47 51" fill="none" xmlns="http://www.w3.org/2000/svg">
<rect x="8.17383" y="47.5059" width="30.9728" height="2.99381" rx="1.4969" stroke="white"/>
<path d="M15.3477 47.0062C16.6266 46.0985 18.9286 43.8293 17.9055 42.0139" stroke="white" stroke-linecap="round" stroke-linejoin="bevel"/>
<path d="M32.2285 47.0059C30.9496 46.0982 28.6476 43.829 29.6707 42.0137" stroke="white" stroke-linecap="round" stroke-linejoin="bevel"/>
<path d="M2 13.7871H16.2692H30.7308H45C45.8284 13.7871 46.5 14.4587 46.5 15.2871V39.8262C46.5 40.6546 45.8284 41.3262 45 41.3262H2C1.17157 41.3262 0.5 40.6546 0.5 39.8262V15.2871C0.5 14.4587 1.17157 13.7871 2 13.7871Z" stroke="white" stroke-linecap="round" stroke-linejoin="round"/>
<path d="M1 37.3018H46" stroke="white"/>
<path d="M4 39.2588H10" stroke="white" stroke-linecap="round" stroke-linejoin="round"/>
<path d="M12 39.2588H14" stroke="white" stroke-linecap="round" stroke-linejoin="round"/>
<path d="M3 16.7529H13.5" stroke="white" stroke-linecap="round" stroke-linejoin="round"/>
<path d="M44 35L39 35" stroke="white" stroke-linecap="round" stroke-linejoin="round"/>
<path d="M3 19.1992H9.5" stroke="white" stroke-linecap="round" stroke-linejoin="round"/>
<path d="M43.5 16.7529L43 16.7529" stroke="white" stroke-linecap="round" stroke-linejoin="round"/>
<path d="M41.5 16.7529L41 16.7529" stroke="white" stroke-linecap="round" stroke-linejoin="round"/>
<path d="M39.5 16.7529L39 16.7529" stroke="white" stroke-linecap="round" stroke-linejoin="round"/>
<path d="M20 37.3018L20 31.4309" stroke="white" stroke-linecap="round" stroke-linejoin="round"/>
<path d="M18 37.3013V27.2075L20 23.6025L22 27.2075V37.3013" stroke="white" stroke-linecap="round" stroke-linejoin="round"/>
<path d="M32 37.3015L32 33.3876" stroke="white" stroke-linecap="round" stroke-linejoin="round"/>
<path d="M30 37.3014V31.1215L32 27.5166L34 31.1215V37.3014" stroke="white" stroke-linecap="round" stroke-linejoin="round"/>
<path d="M30 31.4304H34" stroke="white" stroke-linecap="round" stroke-linejoin="round"/>
<path d="M18 29.4736H22" stroke="white" stroke-linecap="round" stroke-linejoin="round"/>
<path d="M18.5 27.0273V27.0273C19.4116 27.622 20.5884 27.622 21.5 27.0273V27.0273" stroke="white" stroke-linecap="round" stroke-linejoin="round"/>
<rect x="23.5" y="22.1455" width="5" height="14.6558" rx="0.5" stroke="white"/>
<path d="M26 24.5811H28.5V26.538M28.5 26.538H27M28.5 26.538V28.495M28.5 28.495H26M28.5 28.495V30.452M28.5 30.452H27M28.5 30.452V32.4089M28.5 32.4089H26M28.5 32.4089V34.3659H27" stroke="white" stroke-linecap="round" stroke-linejoin="round"/>
<path d="M14.4149 22.624C12.6642 24.8118 12.8073 26.1554 13.4141 26.8817C13.9172 27.4837 14.8884 27.476 15.4612 26.94C16.7042 25.777 15.5595 23.7366 14.4149 22.624Z" stroke="white"/>
<path d="M13.75 27.5166L13 31.3218M13 31.3218H16M13 31.3218L13.75 37.3014H15.25L16 31.3218M16 31.3218L15.25 27.5166" stroke="white"/>
<path d="M23.5 13.8174L15.8915 10.314C15.3965 10.086 15.1751 9.50363 15.3938 9.00442L18 3.05405M18 3.05405L20.5922 4.1411C21.0959 4.35231 21.6758 4.12037 21.8949 3.6201L23 1.09708M18 3.05405L23 1.09708M23 1.09708L33.0845 5.58232C33.5898 5.80707 33.8168 6.39932 33.591 6.9042L30.5 13.8174" stroke="white" stroke-linecap="round" stroke-linejoin="round"/>
<path d="M16.2 10.4668L16.7 10.7604L15.9 10.369C15.5 10.7604 15.1 10.9561 14.6 11.1518L14.4 12.2281C14.4 12.326 14.3 12.4238 14.3 12.4238C14.3 12.4238 14.2 12.5217 14.1 12.5217C13.4 12.6195 12.7 12.6195 12 12.5217C11.9 12.5217 11.8 12.4238 11.8 12.4238C11.7 12.326 11.7 12.326 11.7 12.2281L11.5 11.1518C10.9 10.9561 10.5 10.7604 10.1 10.369L9 10.7604C8.9 10.7604 8.8 10.7604 8.8 10.7604C8.7 10.7604 8.6 10.7604 8.6 10.6625C8.1 10.0754 7.8 9.48835 7.5 8.80341C7.5 8.70557 7.5 8.60772 7.5 8.50987C7.5 8.41202 7.6 8.31417 7.6 8.31417L8.5 7.62923C8.5 7.33569 8.4 7.04214 8.4 6.84645C8.4 6.5529 8.4 6.3572 8.5 6.06366L7.6 5.37872C7.5 5.28087 7.5 5.08517 7.5 4.88948C7.7 4.20454 8.1 3.61745 8.5 3.03036C8.6 2.93251 8.7 2.93251 8.8 2.93251C8.9 2.93251 9 2.93251 9 2.93251L10.1 3.3239C10.5 2.93251 10.9 2.73681 11.4 2.54111L11.6 1.36693C11.6 1.26908 11.7 1.17123 11.7 1.17123C11.8 1.07339 11.8 1.07339 11.9 1.07339C12.6 0.975538 13.4 0.975538 14 1.07339C14.1 1.07339 14.2 1.07339 14.2 1.17123C14.3 1.26908 14.3 1.26908 14.3 1.36693L14.5 2.44326C15.1 2.73681 15.5 2.93251 15.9 3.3239L17 2.93251C17.1 2.93251 17.2 2.93251 17.2 2.93251C17.3 2.93251 17.4 2.93251 17.4 3.03036C17.6 3.3239 17.8 3.61745 18 3.91099L16.6 7.13999C16.6 7.04214 16.6 6.94429 16.6 6.84645C16.6 6.65075 16.6 6.45505 16.6 6.25935L16.5 5.77011L17.5 4.88948C17.3 4.49808 17.1 4.20454 16.9 3.91099L15.7 4.30239L15.3 4.00884C15 3.71529 14.6 3.5196 14.3 3.42175L13.8 3.22605L13.6 1.95402C13.2 1.95402 12.9 1.95402 12.5 1.95402L12.2 3.22605L11.7 3.42175C11.3 3.5196 11 3.81314 10.7 4.00884L10.3 4.30239L9.1 3.91099C8.9 4.20454 8.7 4.49808 8.5 4.88948L9.5 5.77011L9.4 6.25935C9.4 6.45505 9.4 6.65075 9.4 6.84645C9.4 7.04214 9.4 7.23784 9.4 7.43354L9.5 7.92278L8.5 8.80341C8.7 9.09696 8.8 9.48835 9.1 9.7819L10.3 9.39051L10.7 9.7819C11 10.0754 11.3 10.2711 11.7 10.369L12.2 10.5647L12.4 11.7389C12.8 11.7389 13.1 11.7389 13.5 11.7389L13.7 10.4668L14.2 10.2711C14.6 10.1733 14.9 9.9776 15.2 9.68405L15.6 9.39051C15.6 9.7819 15.8 10.2711 16.2 10.4668Z" fill="white"/>
<path d="M15 6.96867C15 8.03334 14.1149 8.91488 13 8.91488C11.8851 8.91488 11 8.03334 11 6.96867C11 5.90401 11.8851 5.02246 13 5.02246C14.1149 5.02246 15 5.90401 15 6.96867Z" stroke="white"/>
<path d="M36.4996 3.93555C35.4996 3.93555 34.5996 4.81618 34.5996 5.89252C34.5996 6.96885 35.3996 7.84949 36.4996 7.84949C37.4996 7.84949 38.3996 6.96885 38.3996 5.89252C38.3996 4.81618 37.4996 3.93555 36.4996 3.93555ZM37.2996 6.77315C37.1996 6.871 37.0996 6.96885 36.9996 6.96885C36.7996 7.0667 36.6996 7.0667 36.4996 7.0667C36.1996 7.0667 35.8996 6.96885 35.6996 6.77315C35.4996 6.6753 35.4996 6.47961 35.3996 6.38176C35.2996 6.18606 35.2996 6.08821 35.2996 5.89252C35.2996 5.59897 35.3996 5.30543 35.5996 5.01188C35.7996 4.81618 36.0996 4.62049 36.3996 4.62049C36.6996 4.62049 36.9996 4.71833 37.1996 5.01188C37.2996 5.10973 37.3996 5.30543 37.4996 5.40327C37.5996 5.50112 37.5996 5.69682 37.5996 5.89252C37.6996 6.18606 37.5996 6.47961 37.2996 6.77315ZM36.4996 3.93555C35.4996 3.93555 34.5996 4.81618 34.5996 5.89252C34.5996 6.96885 35.3996 7.84949 36.4996 7.84949C37.4996 7.84949 38.3996 6.96885 38.3996 5.89252C38.3996 4.81618 37.4996 3.93555 36.4996 3.93555ZM37.2996 6.77315C37.1996 6.871 37.0996 6.96885 36.9996 6.96885C36.7996 7.0667 36.6996 7.0667 36.4996 7.0667C36.1996 7.0667 35.8996 6.96885 35.6996 6.77315C35.4996 6.6753 35.4996 6.47961 35.3996 6.38176C35.2996 6.18606 35.2996 6.08821 35.2996 5.89252C35.2996 5.59897 35.3996 5.30543 35.5996 5.01188C35.7996 4.81618 36.0996 4.62049 36.3996 4.62049C36.6996 4.62049 36.9996 4.71833 37.1996 5.01188C37.2996 5.10973 37.3996 5.30543 37.4996 5.40327C37.5996 5.50112 37.5996 5.69682 37.5996 5.89252C37.6996 6.18606 37.5996 6.47961 37.2996 6.77315ZM36.4996 3.93555C35.4996 3.93555 34.5996 4.81618 34.5996 5.89252C34.5996 6.96885 35.3996 7.84949 36.4996 7.84949C37.4996 7.84949 38.3996 6.96885 38.3996 5.89252C38.3996 4.81618 37.4996 3.93555 36.4996 3.93555ZM37.2996 6.77315C37.1996 6.871 37.0996 6.96885 36.9996 6.96885C36.7996 7.0667 36.6996 7.0667 36.4996 7.0667C36.1996 7.0667 35.8996 6.96885 35.6996 6.77315C35.4996 6.6753 35.4996 6.47961 35.3996 6.38176C35.2996 6.18606 35.2996 6.08821 35.2996 5.89252C35.2996 5.59897 35.3996 5.30543 35.5996 5.01188C35.7996 4.81618 36.0996 4.62049 36.3996 4.62049C36.6996 4.62049 36.9996 4.71833 37.1996 5.01188C37.2996 5.10973 37.3996 5.30543 37.4996 5.40327C37.5996 5.50112 37.5996 5.69682 37.5996 5.89252C37.6996 6.18606 37.5996 6.47961 37.2996 6.77315Z" fill="white"/>
<path d="M40.9 7.26206C41 7.35991 41 7.45776 41 7.65345C40.8 8.24054 40.5 8.72979 40.1 9.12118C40.1 9.21903 40 9.21903 39.9 9.21903C39.8 9.21903 39.8 9.21903 39.7 9.21903L38.9 8.92548C38.6 9.21903 38.2 9.41473 37.9 9.51258L37.6 10.4911C37.6 10.5889 37.6 10.5889 37.5 10.6868C37.5 10.7846 37.4 10.7846 37.3 10.7846C36.8 10.8825 36.2 10.8825 35.7 10.7846C35.6 10.7846 35.6 10.7846 35.5 10.6868C35.5 10.6868 35.4 10.5889 35.4 10.4911L35.2 9.61042C34.8 9.41473 34.5 9.21903 34.1 8.92548L33.3 9.31688C33.2 9.31688 33.2 9.31688 33.1 9.31688L33.5 8.43624L34.4 8.1427L34.7 8.43624C35 8.63194 35.2 8.82764 35.5 8.92548L35.9 9.12118L36 10.0997C36.3 10.0997 36.6 10.0997 36.9 10.0997L37.1 9.02333L37.5 8.92548C37.8 8.82764 38.1 8.63194 38.3 8.43624L38.6 8.1427L39.6 8.53409C39.9 8.1427 40 7.947 40.2 7.65345L39.4 6.96852L39.5 6.47927C39.5 6.28358 39.5 6.18573 39.5 5.99003C39.5 5.79433 39.5 5.69649 39.5 5.50079L39.4 5.01155L40.2 4.32661C40 4.03306 39.9 3.83736 39.7 3.54382L38.7 3.93521L38.4 3.64167C38.1 3.44597 37.8 3.25027 37.5 3.15243L37.1 2.95673L36.9 1.8804C36.6 1.8804 36.3 1.8804 36 1.8804L35.9 2.95673L35.5 3.15243C35.2 3.25027 34.9 3.44597 34.6 3.64167L34.3 3.93521L33.3 3.54382C33.1 3.83736 33 4.03306 32.8 4.32661L33.6 5.01155V5.50079C33.6 5.69649 33.6 5.79433 33.6 5.99003V6.08788L33.5 5.99003L32.8 5.69649C32.8 5.59864 32.8 5.50079 32.8 5.30509L32.1 4.718C32 4.62015 32 4.5223 32 4.32661C32.2 3.73952 32.5 3.25027 32.9 2.85888C32.9 2.76103 33 2.76103 33.1 2.76103C33.2 2.76103 33.2 2.76103 33.3 2.76103L34.1 3.05458C34.4 2.76103 34.8 2.56533 35.2 2.46749L35.4 1.489C35.4 1.39115 35.4 1.39115 35.5 1.29331C35.6 1.19546 35.6 1.19546 35.7 1.19546C36.2 1.09761 36.8 1.09761 37.3 1.19546C37.4 1.19546 37.4 1.19546 37.5 1.29331C37.5 1.29331 37.6 1.39115 37.6 1.489L37.8 2.36964C38.2 2.56533 38.5 2.76103 38.8 3.05458L39.7 2.76103C39.8 2.76103 39.8 2.76103 39.9 2.76103C40 2.76103 40 2.85888 40.1 2.85888C40.5 3.34812 40.7 3.83736 40.9 4.32661C40.9 4.42446 40.9 4.42446 40.9 4.5223C40.9 4.62015 40.9 4.62015 40.8 4.718L40.2 5.40294C40.2 5.59864 40.2 5.79433 40.2 5.99003C40.2 6.18573 40.2 6.38142 40.2 6.57712L40.9 7.26206Z" fill="white"/>
</svg>
