<svg width="62" height="70" viewBox="0 0 62 70" fill="none" xmlns="http://www.w3.org/2000/svg">
<path d="M49.0259 10.526H60.5159C61.0824 10.526 61.5418 10.0667 61.5418 9.50004C61.5418 8.93352 61.0825 8.47412 60.5159 8.47412H49.0259C48.4594 8.47412 48 8.93338 48 9.50004C48.0001 10.0667 48.4594 10.526 49.0259 10.526Z" fill="#1DAEFF"/>
<path d="M60.5159 12.6572H49.0259C48.4594 12.6572 48 13.1165 48 13.6831C48 14.2498 48.4593 14.7091 49.0259 14.7091H60.5159C61.0824 14.7091 61.5418 14.2498 61.5418 13.6831C61.5418 13.1165 61.0824 12.6572 60.5159 12.6572Z" fill="#1DAEFF"/>
<path d="M60.5159 24.2012H49.0259C48.4594 24.2012 48 24.6604 48 25.2271C48 25.7936 48.4593 26.253 49.0259 26.253H60.5159C61.0824 26.253 61.5418 25.7937 61.5418 25.2271C61.5418 24.6604 61.0824 24.2012 60.5159 24.2012Z" fill="#1DAEFF"/>
<path d="M60.5159 28.3843H49.0259C48.4594 28.3843 48 28.8435 48 29.4102C48 29.9767 48.4593 30.4361 49.0259 30.4361H60.5159C61.0824 30.4361 61.5418 29.9769 61.5418 29.4102C61.5418 28.8437 61.0824 28.3843 60.5159 28.3843Z" fill="#1DAEFF"/>
<path d="M60.5159 39.9282H49.0259C48.4594 39.9282 48 40.3875 48 40.9541C48 41.5208 48.4593 41.9801 49.0259 41.9801H60.5159C61.0824 41.9801 61.5418 41.5208 61.5418 40.9541C61.5418 40.3875 61.0824 39.9282 60.5159 39.9282Z" fill="#1DAEFF"/>
<path d="M60.5159 44.1118H49.0259C48.4594 44.1118 48 44.5711 48 45.1377C48 45.7044 48.4593 46.1637 49.0259 46.1637H60.5159C61.0824 46.1637 61.5418 45.7044 61.5418 45.1377C61.5418 44.5711 61.0824 44.1118 60.5159 44.1118Z" fill="#1DAEFF"/>
<path d="M44.4576 5.65329L42.9831 7.17719C42.6438 6.31695 41.8063 5.70569 40.8269 5.70569H33.6918C32.4132 5.70569 31.373 6.74584 31.373 8.02444V15.1595C31.373 16.4381 32.4132 17.4783 33.6918 17.4783H34.008C34.5745 17.4783 35.0339 17.019 35.0339 16.4523C35.0339 15.8857 34.5746 15.4264 34.008 15.4264H33.6918C33.5446 15.4264 33.4247 15.3067 33.4247 15.1594V8.02444C33.4247 7.8771 33.5445 7.75739 33.6918 7.75739H40.8269C40.9741 7.75739 41.0939 7.8771 41.0939 8.02444V9.12944L38.6262 11.6797L36.8549 9.89324C36.4559 9.49075 35.8063 9.48815 35.4041 9.88694C35.0017 10.2859 34.999 10.9354 35.3978 11.3378L37.3314 13.2881C37.6771 13.6368 38.1371 13.8285 38.6277 13.8285H38.639C39.1339 13.8255 39.596 13.628 39.9401 13.2724L41.0938 12.0802V15.1598C41.0938 15.307 40.9741 15.4268 40.8267 15.4268H38.7042C38.1376 15.4268 37.6782 15.8861 37.6782 16.4528C37.6782 17.0194 38.1375 17.4787 38.7042 17.4787H40.8267C42.1053 17.4787 43.1455 16.4385 43.1455 15.1599V9.95973L45.9321 7.08006C46.3261 6.67292 46.3154 6.02349 45.9083 5.62949C45.5012 5.23548 44.8516 5.24615 44.4576 5.65329Z" fill="#1DAEFF"/>
<path d="M44.4576 21.3799L42.9831 22.9038C42.6438 22.0435 41.8063 21.4323 40.8269 21.4323H33.6918C32.4132 21.4323 31.373 22.4724 31.373 23.751V30.8861C31.373 32.1647 32.4132 33.2049 33.6918 33.2049H40.8269C42.1055 33.2049 43.1456 32.1647 43.1456 30.8861V25.6863L45.9321 22.8068C46.3261 22.3997 46.3154 21.7502 45.9083 21.3562C45.501 20.9619 44.8516 20.9727 44.4576 21.3799ZM41.0938 24.856L38.626 27.4063L36.8549 25.6197C36.456 25.2172 35.8064 25.2146 35.4041 25.6134C35.0017 26.0123 34.999 26.6619 35.3978 27.0642L37.3314 29.0146C37.6771 29.3633 38.1371 29.555 38.6277 29.555H38.639C39.1339 29.552 39.596 29.3544 39.9401 28.9988L41.0938 27.8067V30.8862C41.0938 31.0334 40.9741 31.1533 40.8267 31.1533H33.6917C33.5445 31.1533 33.4246 31.0336 33.4246 30.8862V23.7512C33.4246 23.6038 33.5443 23.4841 33.6917 23.4841H40.8267C40.9739 23.4841 41.0938 23.6038 41.0938 23.7512V24.856Z" fill="#1DAEFF"/>
<path d="M44.4577 37.107L42.9831 38.6307C42.6438 37.7705 41.8063 37.1592 40.8269 37.1592H33.6918C32.4132 37.1592 31.373 38.1994 31.373 39.478V46.613C31.373 47.8916 32.4132 48.9318 33.6918 48.9318H40.8269C42.1055 48.9318 43.1456 47.8916 43.1456 46.613V41.4133L45.9321 38.5337C46.3261 38.1266 46.3155 37.4772 45.9083 37.0832C45.5012 36.689 44.8518 36.6998 44.4577 37.107ZM41.0939 40.5831L38.6262 43.1333L36.8549 41.3468C36.456 40.9443 35.8064 40.9417 35.4041 41.3405C35.0017 41.7394 34.999 42.389 35.3978 42.7913L37.3314 44.7418C37.6771 45.0905 38.1371 45.2822 38.6276 45.2822H38.639C39.1339 45.2792 39.5959 45.0816 39.9399 44.726L41.0936 43.5339V46.6134C41.0936 46.7608 40.9739 46.8805 40.8266 46.8805H33.6915C33.5443 46.8805 33.4245 46.7608 33.4245 46.6134V39.4784C33.4245 39.3312 33.5442 39.2113 33.6915 39.2113H40.8266C40.9738 39.2113 41.0936 39.331 41.0936 39.4784V40.5831H41.0939Z" fill="#1DAEFF"/>
<path d="M44.4577 52.8339L42.9831 54.3578C42.6438 53.4976 41.8063 52.8863 40.8269 52.8863H33.6918C32.4132 52.8863 31.373 53.9265 31.373 55.2051V62.3402C31.373 63.6188 32.4132 64.6589 33.6918 64.6589H40.8269C42.1055 64.6589 43.1456 63.6188 43.1456 62.3402V57.1404L45.9321 54.2608C46.3261 53.8537 46.3155 53.2043 45.9083 52.8103C45.5012 52.4161 44.8518 52.4268 44.4577 52.8339ZM41.0939 56.3102L38.6262 58.8605L36.8549 57.0739C36.456 56.6714 35.8064 56.6688 35.4041 57.0676C35.0017 57.4665 34.999 58.1161 35.3978 58.5184L37.3317 60.4688C37.6774 60.8175 38.1374 61.009 38.6278 61.009H38.6393C39.1341 61.006 39.5961 60.8085 39.9402 60.4529L41.0939 59.2608V62.3403C41.0939 62.4875 40.9742 62.6073 40.8269 62.6073H33.6918C33.5446 62.6073 33.4248 62.4876 33.4248 62.3403V55.2052C33.4248 55.058 33.5445 54.9382 33.6918 54.9382H40.8269C40.9741 54.9382 41.0939 55.0579 41.0939 55.2052V56.3102Z" fill="#1DAEFF"/>
<path d="M60.5159 55.6553H49.0259C48.4594 55.6553 48 56.1145 48 56.6812C48 57.2478 48.4593 57.7071 49.0259 57.7071H60.5159C61.0824 57.7071 61.5418 57.2478 61.5418 56.6812C61.5418 56.1145 61.0824 55.6553 60.5159 55.6553Z" fill="#1DAEFF"/>
<path d="M60.5159 59.8389H49.0259C48.4594 59.8389 48 60.2981 48 60.8648C48 61.4313 48.4593 61.8907 49.0259 61.8907H60.5159C61.0824 61.8907 61.5418 61.4314 61.5418 60.8648C61.5418 60.2981 61.0824 59.8389 60.5159 59.8389Z" fill="#1DAEFF"/>
<path d="M18.4266 20.3017C18.2829 20.2586 18.1828 20.1196 18.1828 19.9637V19.1155C21.7081 17.5764 24.1791 14.0584 24.1791 9.97232C24.1791 4.47361 19.7055 0 14.2066 0C8.70777 0 4.23429 4.47361 4.23429 9.97232C4.23429 14.2139 6.89725 17.8433 10.6383 19.2821V19.9635C10.6383 20.1195 10.538 20.2585 10.3945 20.3016C7.58034 21.146 5.05035 22.9083 3.27048 25.2641C1.43001 27.7003 0.457031 30.6058 0.457031 33.667V36.778C0.457031 37.3445 0.916295 37.8039 1.48295 37.8039C2.04961 37.8039 2.50887 37.3447 2.50887 36.778V33.667C2.50887 31.056 3.33834 28.578 4.90752 26.501C6.4265 24.4906 8.58437 22.9868 10.9841 22.2668C11.9886 21.9654 12.69 21.0183 12.69 19.9635V19.8296C13.1845 19.9054 13.6911 19.9446 14.2066 19.9446C14.8649 19.9446 15.5079 19.8788 16.131 19.7565V19.9635C16.131 21.0182 16.8325 21.9653 17.8369 22.2668C20.2366 22.9868 22.3946 24.4906 23.9135 26.501C25.4827 28.578 26.3122 31.056 26.3122 33.667V43.9965C26.3122 45.0236 25.4767 45.859 24.4497 45.859C23.4038 45.859 22.5528 45.0236 22.5528 43.9965L22.5426 32.321C22.5426 31.7544 22.0833 31.295 21.5167 31.295C20.95 31.295 20.4907 31.7543 20.4907 32.321V65.4221C20.4907 66.8148 19.3577 67.948 17.9649 67.948C16.5722 67.948 15.439 66.8148 15.439 65.4221V46.1592C15.439 45.5927 14.9797 45.1334 14.4132 45.1333C13.8467 45.1333 13.3874 45.5924 13.3873 46.1589L13.3823 65.4223C13.3823 66.815 12.2493 67.9482 10.8565 67.9482C9.46377 67.9482 8.33059 66.815 8.33059 65.4223V32.1394C8.33059 31.5729 7.87133 31.1135 7.30467 31.1135C6.73801 31.1135 6.27875 31.5728 6.27875 32.1394L6.27546 43.9965C6.27546 45.0062 5.40359 45.859 4.37151 45.859C3.34449 45.859 2.50901 45.0236 2.50901 43.9965V41.4288C2.50901 40.8623 2.04975 40.4029 1.48309 40.4029C0.916432 40.4029 0.457168 40.8621 0.457168 41.4288V43.9965C0.457168 46.1548 2.21309 47.9109 4.37137 47.9109C5.06253 47.9109 5.71264 47.7341 6.27861 47.4245V65.4223C6.27861 67.9465 8.33223 70 10.8563 70C12.2893 70 13.5706 69.3381 14.4106 68.3043C15.2506 69.3382 16.5319 70 17.9649 70C20.4891 70 22.5426 67.9465 22.5426 65.4223V47.4226C23.1084 47.7333 23.7584 47.9109 24.4498 47.9109C26.6081 47.9109 28.364 46.155 28.364 43.9965V33.667C28.364 30.6059 27.3912 27.7003 25.5506 25.2641C23.7706 22.9085 21.2406 21.1461 18.4266 20.3017ZM14.2066 17.8929C9.83917 17.8929 6.286 14.3398 6.286 9.97232C6.286 5.60487 9.83917 2.05171 14.2066 2.05171C18.5741 2.05171 22.1272 5.60487 22.1272 9.97232C22.1272 14.3398 18.5741 17.8929 14.2066 17.8929Z" fill="#1DAEFF"/>
<path d="M16.8431 12.4476C16.3922 12.1046 15.7485 12.192 15.4054 12.643C15.1585 12.9676 14.7835 13.1537 14.3766 13.1537C13.9678 13.1537 13.5917 12.9661 13.3449 12.639C13.0037 12.1867 12.3606 12.0967 11.908 12.438C11.4558 12.7794 11.3657 13.4226 11.7071 13.8749C12.3451 14.7205 13.3181 15.2055 14.3766 15.2055C15.4299 15.2055 16.4001 14.7244 17.0383 13.8853C17.3816 13.4343 17.294 12.7906 16.8431 12.4476Z" fill="#1DAEFF"/>
</svg>
