<svg width="69" height="69" viewBox="0 0 69 69" fill="none" xmlns="http://www.w3.org/2000/svg">
<path d="M15.7639 12.7315C16.3221 12.7315 16.7747 12.2789 16.7747 11.7207C16.7747 11.1625 16.3221 10.71 15.7639 10.71C15.2057 10.71 14.7532 11.1625 14.7532 11.7207C14.7532 12.2789 15.2056 12.7315 15.7639 12.7315ZM7.678 12.7315C8.2362 12.7315 8.68874 12.2789 8.68874 11.7207C8.68874 11.1625 8.2362 10.71 7.678 10.71C7.1198 10.71 6.66726 11.1625 6.66726 11.7207C6.66726 12.2789 7.11967 12.7315 7.678 12.7315ZM11.721 12.7315C12.2792 12.7315 12.7317 12.2789 12.7317 11.7207C12.7317 11.1625 12.2792 10.71 11.721 10.71C11.1628 10.71 10.7102 11.1625 10.7102 11.7207C10.7102 12.2789 11.1626 12.7315 11.721 12.7315ZM11.4993 23.439C11.5055 23.4391 11.5117 23.4391 11.5179 23.4391L20.6562 23.4414H20.6567C21.2881 23.4414 21.8241 23.0324 21.9908 22.4235C22.1576 21.8144 21.9044 21.1892 21.361 20.8678L19.9712 20.0455C22.2051 17.8314 23.4615 14.8105 23.4415 11.6454C23.4015 5.31572 18.2209 0.0923373 11.8931 0.0012357C5.33605 -0.0929655 0 5.21101 0 11.721C0 17.9637 5.14373 23.3038 11.4993 23.439ZM4.91221 4.81291C6.77602 2.97578 9.23953 1.98593 11.8641 2.02245C17.1001 2.09778 21.3869 6.42026 21.4201 11.6581C21.438 14.484 20.2262 17.1713 18.0953 19.0308C17.7389 19.3416 17.5523 19.808 17.5954 20.2785C17.6385 20.7487 17.9071 21.1729 18.3134 21.4132L18.3235 21.4191L11.5279 21.4175C6.27442 21.3167 2.02148 16.9888 2.02148 11.721C2.02148 9.10371 3.04813 6.65044 4.91221 4.81291ZM67.9893 66.9785H66.9785V51.9266C66.9785 47.9831 64.6483 44.4021 61.0306 42.7985L55.7039 40.5154C57.0001 40.1064 58.171 39.3771 59.1238 38.3654C60.5614 36.8392 61.3857 34.7682 61.3857 32.6835C61.3857 30.768 60.7165 28.9599 59.4501 27.4545C57.8661 25.5736 56.9937 23.1831 56.9937 20.7231V15.8796C56.9937 11.6374 55.3416 7.64999 52.342 4.65186C49.3424 1.65198 45.3546 2.28064e-05 41.1129 2.28064e-05C32.357 2.28064e-05 25.2335 7.12346 25.2335 15.8795V20.5653C25.2341 23.1107 24.2337 25.5404 22.6081 27.4989C20.5623 29.9638 20.1372 33.2964 21.499 36.1962C22.5098 38.3487 24.3329 39.8951 26.5154 40.5497L21.2259 42.8498C17.5148 44.4115 15.1168 48.022 15.1168 52.048V63.9464C15.1168 64.5046 15.5692 64.9572 16.1275 64.9572C16.6859 64.9572 17.1383 64.5046 17.1383 63.9464V52.048C17.1383 48.8376 19.0505 45.9583 22.021 44.7084L28.6512 41.8252V47.9092H25.6051C24.7466 47.9092 23.9249 48.2752 23.3507 48.9135C22.7766 49.5517 22.4993 50.4074 22.5898 51.261L24.2559 66.9785H1.01074C0.452408 66.9785 0 67.4311 0 67.9893C0 68.5475 0.452408 69 1.01074 69H67.9893C68.5476 69 69 68.5475 69 67.9893C69 67.4311 68.5476 66.9785 67.9893 66.9785ZM57.9035 28.756C58.8592 29.8921 59.3643 31.2502 59.3643 32.6834C59.3643 34.2584 58.7403 35.8241 57.6523 36.9793C56.5004 38.2023 54.9178 38.8759 53.1962 38.8759H51.879L50.1487 38.1343C48.6373 37.486 47.6034 36.0965 47.3921 34.4969C50.5107 32.8177 52.6355 29.5222 52.6355 25.7389V18.1404C52.9314 18.1605 53.2269 18.1714 53.5216 18.1714C54.0077 18.1714 54.4919 18.1438 54.9724 18.0893V20.7229C54.9722 23.6587 56.0134 26.5117 57.9035 28.756ZM41.3586 44.7124C37.7427 44.7764 34.1541 44.3182 30.6727 43.3526V40.9461L30.965 40.819C30.9673 40.8181 30.9695 40.817 30.972 40.8161L32.7751 40.032C34.7823 39.1594 36.2007 37.3722 36.6308 35.2836C37.5109 35.5395 38.4399 35.6794 39.4016 35.6794H42.6951C43.6604 35.6794 44.5929 35.5384 45.476 35.2806C45.9202 37.3596 47.344 39.1308 49.3521 39.9923L51.2766 40.817C51.2778 40.8176 51.279 40.8181 51.2802 40.8185L51.4228 40.8796V43.154C48.1516 44.1286 44.7698 44.6529 41.3586 44.7124ZM51.4225 45.2585V47.9093H30.6727V45.4458C33.9493 46.305 37.3136 46.7397 40.7007 46.7397C40.9317 46.7397 41.1628 46.7377 41.3939 46.7336C44.7887 46.6743 48.1557 46.1783 51.4225 45.2585ZM54.9722 16.0511C52.1881 16.4273 49.0498 15.6815 46.8877 14.0062C46.4466 13.6644 45.8117 13.7448 45.4697 14.1861C45.1278 14.6273 45.2083 15.2622 45.6496 15.6041C47.0631 16.6992 48.768 17.4706 50.6141 17.8596V23.3622C50.1284 24.4691 49.5877 25.3897 48.3687 26.3954C47.8555 26.8188 47.2938 27.1704 46.6922 27.4494C46.201 26.4908 45.2034 25.8328 44.0543 25.8328H41.6857C40.0519 25.8328 38.7229 27.162 38.7229 28.7957C38.7229 30.4293 40.0519 31.7585 41.6857 31.7585H44.0543C45.4292 31.7585 46.5882 30.817 46.9209 29.5451C48.273 29.0299 50.4777 27.192 50.4782 27.1913C49.7937 30.8659 46.5653 33.6573 42.6952 33.6573H39.4014C35.035 33.6573 31.4826 30.105 31.4826 25.7385V17.9256C34.9155 17.3875 38.1586 16.2258 41.1329 14.4666C45.6616 11.7878 48.5664 8.28743 50.3195 5.52191C53.3189 8.19337 55.0252 12.0233 54.9722 16.0511ZM44.9954 28.7985C44.9939 29.3164 44.5724 29.7373 44.0542 29.7373H41.6856C41.1665 29.7373 40.7442 29.3149 40.7442 28.7959C40.7442 28.2769 41.1666 27.8546 41.6856 27.8546H44.0542C44.5722 27.8546 44.9937 28.2752 44.9954 28.7928V28.7985ZM27.255 15.8795C27.255 8.23811 33.4716 2.02151 41.1129 2.02151C43.8534 2.02151 46.4722 2.81258 48.71 4.2853C47.0967 6.87132 44.3813 10.1968 40.1037 12.7272C37.1692 14.4629 33.9503 15.5711 30.5361 16.021H30.4731C30.4727 16.021 30.4723 16.021 30.4717 16.021C30.4712 16.021 30.4709 16.021 30.4704 16.021H27.2549V15.8795H27.255ZM23.3286 35.3369C22.3037 33.154 22.6236 30.6453 24.1624 28.7915C26.0932 26.4653 27.2572 23.591 27.255 20.5653V18.0424H29.4611V25.7389C29.4611 29.5243 31.5887 32.8215 34.7101 34.4998C34.5148 36.1114 33.484 37.5193 31.969 38.178L30.3642 38.8759H28.8991C26.4882 38.8759 24.3538 37.5199 23.3286 35.3369ZM58.5142 51.048L56.8254 66.9785H26.2887L24.6 51.048C24.5694 50.7592 24.6594 50.4813 24.8536 50.2656C25.0478 50.0497 25.3148 49.9308 25.6051 49.9308H57.5091C57.7994 49.9308 58.0663 50.0497 58.2605 50.2656C58.4547 50.4813 58.5447 50.7592 58.5142 51.048ZM64.957 66.9785H58.8582L60.5243 51.2612C60.6149 50.4075 60.3374 49.5519 59.7634 48.9136C59.1892 48.2754 58.3677 47.9093 57.5091 47.9093H53.444V41.7461L60.2229 44.6515C63.0987 45.9264 64.957 48.7819 64.957 51.9266V66.9785ZM41.557 54.6138C39.4392 54.6138 37.7162 56.3368 37.7162 58.4546C37.7162 60.5725 39.4392 62.2954 41.557 62.2954C43.6748 62.2954 45.3978 60.5725 45.3978 58.4546C45.3978 56.3368 43.6748 54.6138 41.557 54.6138ZM41.557 60.2739C40.5538 60.2739 39.7377 59.4578 39.7377 58.4546C39.7377 57.4514 40.5538 56.6353 41.557 56.6353C42.5602 56.6353 43.3763 57.4514 43.3763 58.4546C43.3763 59.4578 42.5603 60.2739 41.557 60.2739Z" fill="#1DAEFF"/>
</svg>
