<svg width="70" height="70" viewBox="0 0 70 70" fill="none" xmlns="http://www.w3.org/2000/svg">
<path d="M66.0468 9.41008L63.0555 6.77611L66.0468 4.14268C66.5119 3.73252 66.6711 3.09326 66.4527 2.51327C66.2332 1.93275 65.6911 1.55784 65.0711 1.55784H52.6927V1.02592C52.6927 0.459289 52.2334 0 51.6668 0C51.1001 0 50.6409 0.459289 50.6409 1.02592V14.8623L42.215 19.4375C42.1686 19.0669 42.0575 18.7027 41.8818 18.3598L40.6946 16.042C39.8796 14.4505 37.9218 13.8198 36.3313 14.6342L35.4133 15.1042C34.6421 15.4994 34.0712 16.1702 33.8053 16.9947C33.5393 17.8188 33.6103 18.6973 34.0055 19.468L35.1927 21.7863C35.4699 22.3273 35.8795 22.7556 36.3612 23.0558C35.7311 23.9044 35.432 24.9479 35.1244 26.0321L34.9033 26.815C34.7489 27.3603 35.0662 27.9274 35.6114 28.0812C35.7044 28.1079 35.7984 28.1202 35.8907 28.1202C36.3383 28.1202 36.7495 27.8254 36.8777 27.3731L37.0988 26.5917C37.5485 25.0061 37.8246 24.157 38.7036 23.6795L40.2796 22.8234L40.474 22.7241C40.5386 22.691 40.599 22.6536 40.6604 22.6168L51.8927 16.5173C51.8217 17.9213 51.066 19.2479 49.8216 20.0036L42.5173 24.4416C42.5088 24.4464 42.5002 24.4512 42.4922 24.4566L40.2187 25.8377C39.7349 26.1319 39.5805 26.7632 39.8748 27.2476C40.152 27.7042 40.7288 27.8665 41.1993 27.6374L39.4743 32.852L38.2134 33.3689L34.7847 34.774L35.7727 31.2813C35.9265 30.736 35.6098 30.1689 35.0646 30.0145C34.5188 29.8596 33.9521 30.1774 33.7978 30.7227L32.2367 36.2432C32.2164 36.3142 32.2031 36.3922 32.1999 36.4664L31.7913 43.971C31.779 44.2573 31.8399 44.7983 31.7075 45.0776L27.1701 54.6233H23.8729C21.9412 54.6233 20.37 56.1945 20.37 58.1256V61.087C19.9278 60.8846 19.437 60.7714 18.9195 60.7714H10.546C8.61487 60.7714 7.04368 62.342 7.04368 64.2737V67.948H4.58061C4.01398 67.948 3.55469 68.4073 3.55469 68.9739C3.55469 69.5406 4.01398 69.9999 4.58061 69.9999H65.07C65.6366 69.9999 66.0959 69.5406 66.0959 68.9739C66.0959 68.4073 65.6366 67.948 65.07 67.948H62.4018V41.5042C62.4018 39.5731 60.8307 38.0019 58.8995 38.0019H52.6927V20.104C53.8302 18.5622 54.2516 16.5413 53.7234 14.6209C53.6406 14.3191 53.4244 14.0713 53.136 13.949C52.9944 13.8887 52.8428 13.862 52.6927 13.8678V11.9949H65.0705C65.6911 11.9949 66.2332 11.62 66.4521 11.04C66.6711 10.46 66.5119 9.82023 66.0468 9.41008ZM35.7583 17.6249C35.856 17.3221 36.0654 17.0754 36.3484 16.9307L37.2665 16.4607C37.4395 16.372 37.6243 16.3298 37.8069 16.3298C38.2395 16.3298 38.6577 16.5664 38.8681 16.9771L40.0559 19.2955C40.333 19.837 40.1536 20.4934 39.6606 20.825L39.3263 21.006L38.6208 21.3676C38.0371 21.6667 37.3183 21.4349 37.0192 20.8506L35.8315 18.5328C35.6867 18.2498 35.6606 17.9272 35.7583 17.6249ZM33.6968 54.9389C33.3481 54.7798 32.9689 54.6756 32.5705 54.6388L33.6968 53.1429V54.9389ZM38.568 46.6723C39.0614 46.0811 39.1976 45.3905 39.3076 44.834C39.3354 44.7016 39.8417 41.9363 39.8417 41.9363C39.8417 41.9363 40.3207 42.2348 40.3709 42.2562C40.4057 42.2716 40.4302 42.3058 40.434 42.3459L40.9921 48.0192H37.5538L38.568 46.6723ZM44.6349 41.0097L43.7686 48.0144H43.0535L42.4762 42.1451C42.4025 41.3931 41.9421 40.7368 41.2676 40.4105L40.2358 39.7562L40.9232 35.9468C40.9232 35.9468 43.8188 39.3867 43.8861 39.4743C44.4853 40.2534 44.6904 40.5653 44.6349 41.0097ZM33.5532 45.9748C33.7604 45.351 33.8565 44.716 33.8405 44.0703L34.2133 37.2259L38.9584 35.2814L38.0959 40.059C38.0932 40.0719 38.0905 40.0852 38.0889 40.098L37.3754 44.0485C37.2825 44.4575 37.2013 45.0781 36.946 45.4151L30.0135 54.6233H29.442L33.5532 45.9748ZM9.09552 64.2732C9.09552 63.4737 9.74601 62.8232 10.546 62.8232H18.9195C19.7195 62.8232 20.3705 63.4737 20.3705 64.2732V67.948H9.09552V64.2732ZM22.4218 64.2732V58.1256C22.4218 57.3256 23.0729 56.6752 23.8729 56.6752H32.2463C33.0464 56.6752 33.6968 57.3256 33.6968 58.1256V67.948H22.4224V64.2732H22.4218ZM60.35 41.5042V67.948H49.0755V61.7968C49.0755 61.2301 48.6162 60.7708 48.0496 60.7708C47.4824 60.7708 47.0232 61.2301 47.0232 61.7968V67.948H35.7487V51.521C35.7487 50.7215 36.3992 50.071 37.1992 50.071H45.5727C46.3727 50.071 47.0232 50.7215 47.0232 51.521V56.6639C47.0232 57.2306 47.4824 57.6899 48.0491 57.6899C48.6162 57.6899 49.075 57.2306 49.075 56.6639V41.5042C49.075 40.7042 49.726 40.0537 50.526 40.0537H51.6561C51.6593 40.0537 51.663 40.0542 51.6668 40.0542C51.67 40.0542 51.6737 40.0537 51.6769 40.0537H58.899C59.699 40.0537 60.35 40.7047 60.35 41.5042ZM50.526 38.0019C48.5949 38.0019 47.0237 39.5731 47.0237 41.5042V48.3348C46.6563 48.1671 46.2557 48.0608 45.8343 48.0298L46.6712 41.2623C46.8357 39.9432 46.1628 39.0689 45.5123 38.223C45.4434 38.1332 41.4556 33.3983 41.4556 33.3983L43.9021 26.0016L50.6409 21.9075V38.0019H50.526ZM52.6927 9.94253V3.61022H63.5463L61.2088 5.66848C60.8905 5.94886 60.7078 6.3526 60.7078 6.77664C60.7078 7.20069 60.8905 7.60443 61.2088 7.88481L63.5463 9.94307H52.6927V9.94253Z" fill="#1DAEFF"/>
</svg>
