<svg width="47" height="51" viewBox="0 0 47 51" fill="none" xmlns="http://www.w3.org/2000/svg">
<rect x="29.9219" y="12.5" width="8.76549" height="2" rx="1" stroke="white"/>
<path d="M33.7969 22.0557L36.747 22V23V23.7458M36.747 23.7458H34.5971M36.747 23.7458V25.4359M36.747 25.4359H33.7969M36.747 25.4359V27.1261M36.747 27.1261H34.5971M36.747 27.1261V28.8162M36.747 28.8162H33.7969M36.747 28.8162V30.5L34.5971 30.5064" stroke="white" stroke-linecap="round" stroke-linejoin="round"/>
<path d="M31.875 19.5H36.7343V35.0704C36.7343 36.4122 35.6465 37.5 34.3046 37.5C32.9628 37.5 31.875 36.4122 31.875 35.0704V19.5Z" stroke="white"/>
<rect x="31.875" y="14.5" width="4.8593" height="3" stroke="white"/>
<rect x="28.9453" y="17.5" width="16.5779" height="2" rx="1" stroke="white"/>
<path d="M40.6641 45.5L40.6641 19.5L43.5703 19.5L43.5703 45.5L40.6641 45.5Z" stroke="white"/>
<path d="M39.6875 48.5L39.6875 47C39.6875 46.1716 40.3591 45.5 41.1875 45.5L43.0468 45.5C43.8752 45.5 44.5468 46.1716 44.5468 47L44.5468 48.5L39.6875 48.5Z" stroke="white"/>
<rect x="8.4375" y="50.5" width="2" height="38.062" rx="0.999999" transform="rotate(-90 8.4375 50.5)" stroke="white"/>
<path d="M15.2754 17.5C15.2754 16.9477 15.7231 16.5 16.2754 16.5H24.994C25.5463 16.5 25.994 16.9477 25.994 17.5C25.994 18.0523 25.5463 18.5 24.994 18.5H16.2754C15.7231 18.5 15.2754 18.0523 15.2754 17.5Z" stroke="white"/>
<mask id="path-10-inside-1" fill="white">
<path fill-rule="evenodd" clip-rule="evenodd" d="M24.5414 18.0005H16.729V30.176C13.4257 31.6539 11.1172 35.0292 11.1172 38.9566C11.1172 44.2461 15.3046 48.5341 20.4701 48.5341C25.6355 48.5341 29.8229 44.2461 29.8229 38.9566C29.8229 35.1614 27.6673 31.8818 24.5414 30.3317V18.0005Z"/>
</mask>
<path d="M16.729 18.0005V17.0005H15.729V18.0005H16.729ZM24.5414 18.0005H25.5414V17.0005H24.5414V18.0005ZM16.729 30.176L17.1374 31.0888L17.729 30.8241V30.176H16.729ZM24.5414 30.3317H23.5414V30.952L24.0971 31.2276L24.5414 30.3317ZM16.729 19.0005H24.5414V17.0005H16.729V19.0005ZM17.729 30.176V18.0005H15.729V30.176H17.729ZM12.1172 38.9566C12.1172 35.4273 14.1905 32.4073 17.1374 31.0888L16.3206 29.2632C12.6609 30.9006 10.1172 34.6311 10.1172 38.9566H12.1172ZM20.4701 47.5341C15.8791 47.5341 12.1172 43.7163 12.1172 38.9566H10.1172C10.1172 44.7759 14.7301 49.5341 20.4701 49.5341V47.5341ZM28.8229 38.9566C28.8229 43.7163 25.061 47.5341 20.4701 47.5341V49.5341C26.21 49.5341 30.8229 44.7759 30.8229 38.9566H28.8229ZM24.0971 31.2276C26.8871 32.6112 28.8229 35.5464 28.8229 38.9566H30.8229C30.8229 34.7765 28.4474 31.1525 24.9857 29.4358L24.0971 31.2276ZM23.5414 18.0005V30.3317H25.5414V18.0005H23.5414Z" fill="white" mask="url(#path-10-inside-1)"/>
<mask id="path-12-inside-2" fill="white">
<path fill-rule="evenodd" clip-rule="evenodd" d="M14.3906 36.2822C13.6067 36.2822 12.8884 36.777 12.7549 37.5495C12.676 38.0065 12.6348 38.4768 12.6348 38.957C12.6348 43.3888 16.1431 46.9814 20.471 46.9814C24.7988 46.9814 28.3071 43.3888 28.3071 38.957C28.3071 38.4768 28.2659 38.0065 28.187 37.5495C28.0535 36.777 27.3352 36.2822 26.5514 36.2822H14.3906Z"/>
</mask>
<path d="M28.187 37.5495L27.2016 37.7197L28.187 37.5495ZM13.6348 38.957C13.6348 38.5341 13.671 38.1207 13.7403 37.7197L11.7695 37.3792C11.6809 37.8922 11.6348 38.4196 11.6348 38.957H13.6348ZM20.471 45.9814C16.7177 45.9814 13.6348 42.859 13.6348 38.957H11.6348C11.6348 43.9186 15.5686 47.9814 20.471 47.9814V45.9814ZM27.3071 38.957C27.3071 42.859 24.2242 45.9814 20.471 45.9814V47.9814C25.3733 47.9814 29.3071 43.9186 29.3071 38.957H27.3071ZM27.2016 37.7197C27.2709 38.1207 27.3071 38.5341 27.3071 38.957H29.3071C29.3071 38.4196 29.261 37.8922 29.1724 37.3792L27.2016 37.7197ZM26.5514 35.2822H14.3906V37.2822H26.5514V35.2822ZM29.1724 37.3792C28.9397 36.0323 27.7187 35.2822 26.5514 35.2822V37.2822C26.9518 37.2822 27.1674 37.5217 27.2016 37.7197L29.1724 37.3792ZM13.7403 37.7197C13.7745 37.5217 13.9901 37.2822 14.3906 37.2822V35.2822C13.2232 35.2822 12.0023 36.0323 11.7695 37.3792L13.7403 37.7197Z" fill="white" mask="url(#path-12-inside-2)"/>
<path d="M20.6348 21H24.0527V23.3333M24.0527 23.3333H21.4175M24.0527 23.3333V25.6667M24.0527 25.6667H20.6348M24.0527 25.6667V28H21.4175" stroke="white" stroke-linecap="round" stroke-linejoin="round"/>
<path d="M19.2114 33.262C19.2114 33.7119 18.8583 34.0563 18.4475 34.0563C18.0367 34.0563 17.6836 33.7119 17.6836 33.262C17.6836 32.8121 18.0367 32.4678 18.4475 32.4678C18.8583 32.4678 19.2114 32.8121 19.2114 33.262Z" stroke="white"/>
<path d="M22.9987 5C22.9987 5.8384 22.3359 6.5 21.5404 6.5C20.7448 6.5 20.082 5.8384 20.082 5C20.082 4.1616 20.7448 3.5 21.5404 3.5C22.3359 3.5 22.9987 4.1616 22.9987 5Z" stroke="white"/>
<path d="M25.9375 9.5C25.9375 10.0623 25.4939 10.5 24.9687 10.5C24.4436 10.5 24 10.0623 24 9.5C24 8.93774 24.4436 8.5 24.9687 8.5C25.4939 8.5 25.9375 8.93774 25.9375 9.5Z" stroke="white"/>
<path d="M22.0195 12.5C22.0195 13.0623 21.5759 13.5 21.0508 13.5C20.5256 13.5 20.082 13.0623 20.082 12.5C20.082 11.9377 20.5256 11.5 21.0508 11.5C21.5759 11.5 22.0195 11.9377 22.0195 12.5Z" stroke="white"/>
<path d="M23.7622 39.4739C23.7622 39.9238 23.409 40.2682 22.9983 40.2682C22.5875 40.2682 22.2344 39.9238 22.2344 39.4739C22.2344 39.024 22.5875 38.6797 22.9983 38.6797C23.409 38.6797 23.7622 39.024 23.7622 39.4739Z" stroke="white"/>
<path d="M20.2231 42.5794C20.2231 43.0293 19.87 43.3737 19.4592 43.3737C19.0484 43.3737 18.6953 43.0293 18.6953 42.5794C18.6953 42.1295 19.0484 41.7852 19.4592 41.7852C19.87 41.7852 20.2231 42.1295 20.2231 42.5794Z" stroke="white"/>
<path d="M33.8164 33L33.8164 35" stroke="white" stroke-linecap="round" stroke-linejoin="round"/>
<mask id="path-22-inside-3" fill="white">
<path fill-rule="evenodd" clip-rule="evenodd" d="M11.5488 16.4594C11.5488 15.6584 12.0479 14.9594 12.6923 14.4836C14.1341 13.4188 15.0727 11.684 15.0727 9.72461C15.0727 6.48641 12.5091 3.86133 9.34688 3.86133C6.18462 3.86133 3.62109 6.48641 3.62109 9.72461C3.62109 11.6838 4.55946 13.4185 6.00108 14.4833C6.64536 14.9591 7.14435 15.658 7.14435 16.459V19.0002C7.14435 20.1048 8.03978 21.0002 9.14435 21.0002H9.5488C10.6534 21.0002 11.5488 20.1048 11.5488 19.0002V16.4594Z"/>
</mask>
<path d="M12.6923 14.4836L12.2171 13.84L12.6923 14.4836ZM14.2727 9.72461C14.2727 11.424 13.4596 12.9225 12.2171 13.84L13.1675 15.1271C14.8087 13.9152 15.8727 11.9439 15.8727 9.72461H14.2727ZM9.34688 4.66133C12.0495 4.66133 14.2727 6.91024 14.2727 9.72461H15.8727C15.8727 6.06258 12.9688 3.06133 9.34688 3.06133V4.66133ZM4.42109 9.72461C4.42109 6.91024 6.64423 4.66133 9.34688 4.66133V3.06133C5.725 3.06133 2.82109 6.06258 2.82109 9.72461H4.42109ZM6.47636 13.8397C5.23402 12.9222 4.42109 11.4238 4.42109 9.72461H2.82109C2.82109 11.9437 3.88491 13.9149 5.5258 15.1268L6.47636 13.8397ZM7.94435 19.0002V16.459H6.34435V19.0002H7.94435ZM9.14435 20.2002C8.48161 20.2002 7.94435 19.663 7.94435 19.0002H6.34435C6.34435 20.5466 7.59795 21.8002 9.14435 21.8002V20.2002ZM9.5488 20.2002H9.14435V21.8002H9.5488V20.2002ZM10.7488 19.0002C10.7488 19.663 10.2115 20.2002 9.5488 20.2002V21.8002C11.0952 21.8002 12.3488 20.5466 12.3488 19.0002H10.7488ZM10.7488 16.4594V19.0002H12.3488V16.4594H10.7488ZM5.5258 15.1268C6.05247 15.5158 6.34435 16.0031 6.34435 16.459H7.94435C7.94435 15.3129 7.23825 14.4025 6.47636 13.8397L5.5258 15.1268ZM12.2171 13.84C11.455 14.4027 10.7488 15.3132 10.7488 16.4594H12.3488C12.3488 16.0035 12.6407 15.5161 13.1675 15.1271L12.2171 13.84Z" fill="white" mask="url(#path-22-inside-3)"/>
<path d="M8.74615 17V12.308M8.74615 12.308V11.4688C8.74615 11.0265 8.38762 10.668 7.94534 10.668V10.668C7.50307 10.668 7.14453 11.0265 7.14453 11.4688V11.488C7.14453 11.9409 7.51168 12.308 7.96457 12.308H8.74615ZM8.74615 12.308H9.94736M9.94736 12.308V11.4688C9.94736 11.0265 10.3059 10.668 10.7482 10.668V10.668C11.1904 10.668 11.549 11.0265 11.549 11.4688V11.488C11.549 11.9409 11.1818 12.308 10.7289 12.308H9.94736ZM9.94736 12.308V17" stroke="white" stroke-width="0.8"/>
<path d="M7.14453 17H11.549" stroke="white" stroke-width="0.8" stroke-linecap="round" stroke-linejoin="round"/>
<path d="M7.14453 18.7451H11.549" stroke="white" stroke-width="0.8" stroke-linecap="round" stroke-linejoin="round"/>
<path d="M9.33203 0.999947C9.33203 1.02701 9.33203 2.59855 9.33203 2.59855" stroke="white" stroke-linecap="round" stroke-linejoin="round"/>
<path d="M3.75586 3.83203C3.78248 3.8591 4.5381 4.62863 4.5381 4.62863" stroke="white" stroke-linecap="round" stroke-linejoin="round"/>
<path d="M0.978516 9.50073C1.00514 9.50073 2.54212 9.50073 2.54212 9.50073" stroke="white" stroke-linecap="round" stroke-linejoin="round"/>
<path d="M3.66408 15.2907C3.6907 15.2636 4.53936 14.3984 4.53936 14.3984" stroke="white" stroke-linecap="round" stroke-linejoin="round"/>
<path d="M14.9346 3.82812C14.908 3.85519 14.1484 4.62895 14.1484 4.62895" stroke="white" stroke-linecap="round" stroke-linejoin="round"/>
<path d="M17.7159 9.50098C17.6893 9.50098 16.1465 9.50098 16.1465 9.50098" stroke="white" stroke-linecap="round" stroke-linejoin="round"/>
<path d="M12.4892 26.981L11.4828 26.5965C11.4356 26.3543 11.3692 26.1139 11.2842 25.8806C11.1992 25.6473 11.0957 25.421 10.9764 25.2062L11.4921 24.2435C11.531 24.1708 11.5474 24.0874 11.5392 24.0045C11.5309 23.9215 11.4984 23.8429 11.446 23.779L11.4241 23.7517C10.9938 23.2252 10.4754 22.7825 9.89393 22.445L9.86381 22.4276C9.79328 22.3867 9.71259 22.3687 9.63235 22.376C9.55212 22.3832 9.47611 22.4154 9.41435 22.4683L8.59631 23.1748C8.13996 23.0114 7.66572 22.9259 7.18551 22.9221L6.6307 21.9691C6.58892 21.8974 6.52709 21.8403 6.45344 21.8054C6.37978 21.7706 6.29778 21.7595 6.21833 21.7739L6.18477 21.7798C5.53822 21.8967 4.90148 22.1386 4.33729 22.4816L4.30811 22.4996C4.23882 22.5418 4.18381 22.6048 4.15037 22.6804C4.11694 22.7559 4.10666 22.8404 4.12092 22.9226L4.31147 24.0195C3.9538 24.3416 3.65017 24.7224 3.41263 25.1469L2.33351 25.1584C2.25287 25.1594 2.17465 25.1857 2.10924 25.2338C2.04382 25.2818 1.99431 25.3495 1.96729 25.4276L1.95558 25.4608C1.73205 26.1045 1.62301 26.7855 1.63366 27.4712L1.63459 27.5065C1.63706 27.6767 1.74139 27.8288 1.89686 27.8888L2.91519 28.2769C2.96153 28.5167 3.02822 28.7543 3.1119 28.984C3.19601 29.2149 3.29756 29.4392 3.4155 29.6505L2.8931 30.6239C2.85423 30.6966 2.83782 30.7799 2.84606 30.8629C2.85431 30.9459 2.88681 31.0245 2.93925 31.0883L2.9611 31.1156C3.39221 31.6419 3.90733 32.0829 4.49131 32.4224L4.52142 32.4397C4.59195 32.4806 4.67265 32.4986 4.75288 32.4914C4.83312 32.4841 4.90912 32.4519 4.97088 32.399L5.79502 31.6875C6.24861 31.8506 6.72053 31.937 7.1968 31.9409L7.75453 32.8983C7.79631 32.97 7.85814 33.0271 7.9318 33.0619C8.00545 33.0968 8.08745 33.1078 8.1669 33.0935L8.20046 33.0876C8.8528 32.9692 9.47841 32.7315 10.0479 32.3857L10.0771 32.3678C10.1464 32.3256 10.2014 32.2625 10.2349 32.187C10.2683 32.1114 10.2786 32.027 10.2643 31.9448L10.0743 30.8531C10.4354 30.5303 10.7416 30.1475 10.9805 29.7202L12.0517 29.709C12.1324 29.708 12.2106 29.6817 12.276 29.6336C12.3414 29.5855 12.3909 29.5179 12.4179 29.4398L12.4297 29.4065C12.6539 28.7586 12.7621 28.0822 12.7516 27.3961L12.7506 27.3609C12.749 27.1931 12.6447 27.041 12.4892 26.981ZM10.2031 25.6615C10.2983 25.8321 10.3813 26.0128 10.4492 26.1992C10.5171 26.3856 10.5699 26.5778 10.607 26.7704L10.706 27.2819L11.854 27.7207C11.8367 28.0845 11.7788 28.4446 11.6814 28.794L10.459 28.8079L10.2072 29.2568C10.0153 29.5981 9.77374 29.9007 9.48641 30.1578L9.10636 30.498L9.32334 31.7437C9.00919 31.9068 8.67787 32.0327 8.33569 32.1189L7.70187 31.0288L7.19913 31.0213C6.82067 31.0172 6.44529 30.9489 6.08448 30.819L5.60616 30.6461L4.66636 31.4577C4.36851 31.2573 4.0953 31.0229 3.84893 30.7605L4.44362 29.6515L4.19286 29.1991C4.09969 29.0304 4.01712 28.8509 3.95053 28.6681C3.8835 28.4841 3.83041 28.2948 3.79418 28.1045L3.69447 27.5947L2.53463 27.1522C2.55159 26.7884 2.60997 26.4294 2.70718 26.079L3.93787 26.066L4.18925 25.6158C4.3792 25.2767 4.61965 24.9745 4.90348 24.7188L5.28121 24.3795L5.06336 23.1314C5.37585 22.9688 5.70932 22.8422 6.05101 22.7562L6.68395 23.8438L7.1893 23.8476C7.57009 23.8508 7.94779 23.9182 8.31137 24.0484L8.78924 24.2201L9.72338 23.4148C10.0212 23.6152 10.2944 23.8496 10.5408 24.112L9.95279 25.2103L10.2031 25.6615ZM6.37979 25.1985C5.25039 25.6276 4.68 26.9232 5.10584 28.0923C5.53167 29.2614 6.7925 29.8613 7.9219 29.4322C9.0513 29.0032 9.62169 27.7075 9.19585 26.5384C8.77002 25.3694 7.50919 24.7694 6.37979 25.1985ZM8.41807 27.9183C8.34301 28.0895 8.23576 28.2434 8.10249 28.3711C7.96922 28.4988 7.81256 28.5978 7.64152 28.6625C7.2941 28.7945 6.91634 28.7778 6.57757 28.6176C6.41101 28.5386 6.26094 28.4266 6.13599 28.288C6.01103 28.1493 5.91366 27.9868 5.84948 27.8098C5.71848 27.4501 5.73132 27.0605 5.88361 26.7124C6.03707 26.3638 6.31275 26.1003 6.66017 25.9683C7.00759 25.8363 7.38491 25.8518 7.72412 26.0132C7.89068 26.0921 8.04075 26.2041 8.1657 26.3428C8.29066 26.4814 8.38803 26.6439 8.45221 26.821C8.5832 27.1806 8.57036 27.5702 8.41807 27.9183Z" fill="white"/>
<path d="M10.4362 39.3429L9.71796 38.6981C9.75639 38.4837 9.77819 38.2645 9.78216 38.0451C9.78614 37.8256 9.77229 37.6059 9.74164 37.3904L10.4828 36.7683C10.5387 36.7213 10.5793 36.6582 10.5991 36.5873C10.6189 36.5165 10.617 36.4413 10.5936 36.3717L10.5841 36.3421C10.3936 35.7689 10.1023 35.2357 9.72449 34.7683L9.70487 34.7443C9.65903 34.6876 9.59732 34.6464 9.52786 34.6262C9.45841 34.6059 9.38447 34.6075 9.31579 34.6307L8.40416 34.9436C8.07498 34.6601 7.70576 34.4348 7.30526 34.2747L7.14777 33.3105C7.13588 33.2379 7.10253 33.1708 7.05213 33.1181C7.00173 33.0653 6.93668 33.0295 6.86561 33.0153L6.83564 33.0091C6.25715 32.8938 5.64665 32.8843 5.06431 32.9816L5.03413 32.9868C4.96259 32.9988 4.89628 33.0326 4.844 33.0837C4.79172 33.1349 4.75595 33.2009 4.74145 33.273L4.54793 34.2364C4.14508 34.384 3.76855 34.5976 3.43328 34.8686L2.52684 34.5252C2.45907 34.4996 2.38518 34.4956 2.31498 34.5137C2.24479 34.5318 2.18162 34.5712 2.13387 34.6266L2.11339 34.65C1.71929 35.1057 1.40896 35.6294 1.19725 36.1962L1.18669 36.2254C1.134 36.3661 1.17235 36.5251 1.28308 36.6252L2.0101 37.277C1.97171 37.4891 1.95107 37.7061 1.94715 37.9221C1.94322 38.1393 1.956 38.3568 1.9867 38.5689L1.2365 39.1976C1.1806 39.2446 1.14005 39.3077 1.12026 39.3786C1.10046 39.4494 1.10235 39.5246 1.12568 39.5942L1.13518 39.6238C1.32649 40.1971 1.61553 40.7277 1.99482 41.1976L2.01444 41.2216C2.06028 41.2783 2.12199 41.3195 2.19145 41.3398C2.2609 41.36 2.33484 41.3584 2.40352 41.3352L3.32188 41.0202C3.64884 41.3025 4.01584 41.5277 4.41302 41.6867L4.57154 42.6555C4.58343 42.728 4.61679 42.7951 4.66718 42.8478C4.71758 42.9006 4.78264 42.9364 4.8537 42.9507L4.88368 42.9568C5.46749 43.0728 6.06731 43.0821 6.655 42.9843L6.68518 42.9791C6.75672 42.9671 6.82303 42.9333 6.87531 42.8822C6.92759 42.831 6.96336 42.765 6.97787 42.6929L7.17018 41.7341C7.57608 41.5869 7.95537 41.3725 8.29268 41.0997L9.19247 41.4407C9.26024 41.4663 9.33414 41.4703 9.40433 41.4522C9.47452 41.4341 9.53769 41.3947 9.58544 41.3394L9.60593 41.3159C10.002 40.857 10.3101 40.3368 10.5221 39.7697L10.5326 39.7405C10.5853 39.6021 10.5469 39.4431 10.4362 39.3429ZM8.94826 37.5116C8.97302 37.6828 8.98432 37.8584 8.98115 38.0338C8.97797 38.2091 8.96032 38.3842 8.92937 38.5546L8.84763 39.0071L9.66673 39.7429C9.53523 40.036 9.37092 40.3129 9.17707 40.5681L8.14998 40.1798L7.79489 40.4662C7.52462 40.6838 7.22513 40.8534 6.90207 40.9706L6.4747 41.1258L6.25541 42.22C5.94012 42.2513 5.62246 42.2463 5.30848 42.2053L5.12898 41.1026L4.71084 40.932C4.39556 40.8049 4.10349 40.6261 3.84346 40.4014L3.49896 40.103L2.45164 40.4624C2.26695 40.2004 2.11381 39.9185 1.99214 39.6224L2.84645 38.9058L2.78223 38.4522C2.75855 38.2833 2.74722 38.1088 2.75033 37.9369C2.75347 37.7638 2.76997 37.5909 2.80087 37.4228L2.88148 36.9714L2.05359 36.2287C2.18483 35.9354 2.34917 35.6596 2.54325 35.4035L3.57696 35.7953L3.93208 35.5077C4.2001 35.2912 4.49847 35.1216 4.81819 35.0044L5.24334 34.8492L5.46266 33.7527C5.77636 33.7214 6.09609 33.7264 6.40959 33.7674L6.58913 34.8678L7.01065 35.0362C7.32817 35.1633 7.62246 35.3422 7.8847 35.568L8.22923 35.8653L9.26979 35.5092C9.45449 35.7712 9.60762 36.0531 9.7293 36.3492L8.88402 37.0591L8.94826 37.5116ZM5.89883 35.8811C4.81599 35.8643 3.92198 36.7421 3.90207 37.8416C3.88216 38.9412 4.74388 39.8462 5.82672 39.8631C6.90957 39.8799 7.80357 39.0022 7.82348 37.9026C7.8434 36.803 6.98168 35.898 5.89883 35.8811ZM6.72887 38.7818C6.61101 38.8978 6.47179 38.9891 6.31922 39.0505C6.16664 39.1118 6.00372 39.1419 5.83983 39.1391C5.50674 39.1339 5.19609 38.9967 4.96423 38.7543C4.85031 38.635 4.7608 38.4939 4.70088 38.3392C4.64095 38.1845 4.61179 38.0191 4.61505 37.8527C4.62118 37.5145 4.75728 37.1986 4.99668 36.9625C5.2372 36.7263 5.55262 36.6 5.88572 36.6051C6.21882 36.6103 6.52949 36.7464 6.76132 36.9899C6.87525 37.1092 6.96475 37.2503 7.02468 37.405C7.0846 37.5598 7.11377 37.7251 7.1105 37.8915C7.10437 38.2298 6.96828 38.5456 6.72887 38.7818Z" fill="white"/>
</svg>
