<svg width="20" height="20" viewBox="0 0 20 20" fill="none" xmlns="http://www.w3.org/2000/svg">
<g clip-path="url(#clip0)">
<path d="M14.7935 0H5.02081C2.24143 0 0 2.24143 0 5.02081V14.7935C0 17.5728 2.24143 19.7246 5.02081 19.7246H14.7935C17.5728 19.7246 19.8143 17.4832 19.8143 14.7038V5.02081C19.7246 2.24143 17.5728 0 14.7935 0ZM17.5728 14.7935C17.5728 16.3176 16.3176 17.6625 14.7038 17.6625H5.02081C3.49664 17.6625 2.15178 16.4073 2.15178 14.7935V5.02081C2.15178 3.49664 3.40698 2.15178 5.02081 2.15178H14.7935C16.3176 2.15178 17.6625 3.40698 17.6625 5.02081V14.7935H17.5728Z" fill="#1DAEFF"/>
<path d="M15.1519 5.82816C15.7956 5.82816 16.3174 5.30633 16.3174 4.66262C16.3174 4.0189 15.7956 3.49707 15.1519 3.49707C14.5082 3.49707 13.9863 4.0189 13.9863 4.66262C13.9863 5.30633 14.5082 5.82816 15.1519 5.82816Z" fill="#1DAEFF"/>
<path d="M9.86047 4.75269C7.08109 4.75269 4.75 6.99412 4.75 9.86316C4.75 12.6425 6.99143 14.9736 9.86047 14.9736C12.6399 14.9736 14.9709 12.7322 14.9709 9.86316C14.9709 7.08378 12.7295 4.75269 9.86047 4.75269ZM9.86047 12.8219C8.24664 12.8219 6.90178 11.477 6.90178 9.86316C6.90178 8.24932 8.24664 6.90446 9.86047 6.90446C11.4743 6.90446 12.8192 8.24932 12.8192 9.86316C12.8192 11.477 11.4743 12.8219 9.86047 12.8219Z" fill="#1DAEFF"/>
</g>
<defs>
<clipPath id="clip0">
<rect width="19.7246" height="19.7246" fill="white"/>
</clipPath>
</defs>
</svg>
