<svg width="19" height="20" viewBox="0 0 19 20" fill="none" xmlns="http://www.w3.org/2000/svg">
<g clip-path="url(#clip0)">
<path d="M4.27092 6.39771H0.261719V19.7276H4.27092V6.39771Z" fill="#1DAEFF"/>
<path d="M2.26607 4.59341C0.871566 4.59341 0 3.60267 0 2.34174C0 0.990735 0.871566 0 2.26607 0C3.66058 0 4.44499 0.990735 4.53214 2.34174C4.44499 3.60267 3.57342 4.59341 2.26607 4.59341Z" fill="#1DAEFF"/>
<path d="M18.564 19.7231H14.5548V12.6079C14.5548 10.8065 13.9447 9.63567 12.5502 9.63567C11.4171 9.63567 10.807 10.4463 10.5456 11.2569C10.4584 11.5271 10.3713 11.9774 10.3713 12.3377V19.8132H6.44922C6.44922 19.8132 6.53638 7.74427 6.44922 6.48333H10.4584V8.37474C10.9814 7.47407 11.9401 6.21313 14.0318 6.21313C16.6465 6.21313 18.6511 8.10454 18.6511 12.2476V19.7231H18.564Z" fill="#1DAEFF"/>
</g>
<defs>
<clipPath id="clip0">
<rect width="18.5644" height="19.7246" fill="white"/>
</clipPath>
</defs>
</svg>
