<svg width="848" height="506" viewBox="0 0 848 506" fill="none" xmlns="http://www.w3.org/2000/svg">
<path d="M734.592 169.524L649.628 239.749C663.789 255.852 672.197 277.322 672.197 301.028C672.197 352.467 631.042 394.065 580.152 394.065C550.503 394.065 523.951 379.752 507.135 357.387L438.544 272.401L395.62 219.621L368.183 185.627L346.942 159.684C292.069 101.983 204.45 77.382 114.617 115.849C71.2501 134.188 36.2908 169.972 18.1474 213.806C-43.8059 362.307 62.8422 504.993 201.794 504.993C229.673 504.993 253.127 498.731 262.42 495.6C340.747 470.552 379.246 403.011 390.309 382.435C397.832 393.17 404.913 403.458 412.436 414.193L437.659 445.056C456.688 464.29 478.814 479.498 504.038 489.785C552.715 509.914 611.128 511.703 670.427 485.313C712.466 466.526 745.655 432.532 763.799 390.039C798.758 306.843 781.5 225.436 734.592 169.524ZM201.794 394.065C135.416 394.065 85.4109 322.945 122.583 251.379C129.221 238.407 139.841 228.12 152.232 221.41C222.593 182.943 293.839 233.934 293.839 301.028C293.839 352.467 252.685 394.065 201.794 394.065Z" fill="#1DAEFF"/>
<path d="M456.26 186.528C507.094 186.528 548.304 144.874 548.304 93.4913C548.304 42.1086 507.094 0.45459 456.26 0.45459C405.425 0.45459 364.215 42.1086 364.215 93.4913C364.215 144.874 405.425 186.528 456.26 186.528Z" fill="#1DAEFF"/>
<path d="M581.939 364.999C612.977 364.999 638.139 339.566 638.139 308.193C638.139 276.82 612.977 251.387 581.939 251.387C550.9 251.387 525.738 276.82 525.738 308.193C525.738 339.566 550.9 364.999 581.939 364.999Z" fill="#1DAEFF"/>
</svg>
