<svg width="1612" height="409" viewBox="0 0 1612 409" fill="none" xmlns="http://www.w3.org/2000/svg">
<g clip-path="url(#clip0)">
<path d="M0 240.474L72.0696 234.317V259.92C72.0696 309.181 95.6677 326.034 127.557 326.034C154.982 326.034 177.623 311.126 177.623 258.623V3.56543H259.578V264.133C259.578 368.165 211.744 409.325 127.557 409.325C50.0661 409.325 0 362.332 0 264.781V240.474H0Z" fill="white"/>
<path d="M426.995 111.812C507.993 111.812 574.323 177.926 574.323 260.244C574.323 342.563 507.993 408.677 426.995 408.677C348.228 408.677 284.131 342.563 284.131 260.244C284.45 178.25 348.547 111.812 426.995 111.812ZM426.995 326.034C466.856 326.034 492.686 297.514 492.686 260.244C492.686 220.381 466.856 189.269 426.995 189.269C389.365 189.269 365.767 220.057 365.767 260.244C365.767 297.514 389.365 326.034 426.995 326.034Z" fill="white"/>
<path d="M728.989 111.812C809.987 111.812 876.317 177.926 876.317 260.244C876.317 342.563 809.987 408.677 728.989 408.677C650.222 408.677 586.125 342.563 586.125 260.244C586.125 178.25 650.222 111.812 728.989 111.812ZM728.989 326.034C768.85 326.034 794.68 297.514 794.68 260.244C794.68 220.381 768.85 189.269 728.989 189.269C691.359 189.269 667.761 220.057 667.761 260.244C667.761 297.514 691.359 326.034 728.989 326.034Z" fill="white"/>
<path d="M978.998 3.56543V150.378C990.797 127.043 1019.5 112.135 1053.62 112.135C1126.65 112.135 1186.28 178.249 1186.28 260.568C1186.28 342.238 1126.65 409.001 1053.62 409.001C1019.18 409.001 990.797 393.444 978.998 370.11V403.167H897.043V3.56543H978.998ZM978.998 260.568C978.998 303.348 1006.42 325.71 1039.59 325.71C1078.49 325.71 1104.32 297.19 1104.32 260.568C1104.32 221.029 1078.49 190.241 1039.59 190.241C1006.74 190.241 978.998 214.223 978.998 260.568Z" fill="white"/>
<path d="M1289.28 3.56543V150.378C1301.08 127.043 1329.78 112.135 1363.9 112.135C1436.93 112.135 1496.56 178.249 1496.56 260.568C1496.56 342.238 1436.93 409 1363.9 409C1329.46 409 1301.08 393.444 1289.28 370.11V403.167H1207.33V3.56543H1289.28ZM1289.28 260.568C1289.28 303.348 1316.71 325.71 1349.87 325.71C1388.77 325.71 1414.61 297.19 1414.61 260.568C1414.61 221.029 1388.77 190.241 1349.87 190.241C1317.02 190.241 1289.28 214.223 1289.28 260.568Z" fill="white"/>
<path d="M1612 355.201C1611.36 380.48 1589.36 402.518 1564.8 403.167C1539.61 402.518 1518.25 380.48 1517.61 355.201C1518.25 329.923 1539.61 307.885 1564.8 307.236C1589.36 307.885 1611.36 330.247 1612 355.201Z" fill="#14FF91"/>
<path d="M1607.86 0H1525.9V285.522H1607.86V0Z" fill="#14FF91"/>
</g>
<defs>
<clipPath id="clip0">
<rect width="1612" height="409" fill="white"/>
</clipPath>
</defs>
</svg>
