<svg width="66" height="66" viewBox="0 0 66 66" fill="none" xmlns="http://www.w3.org/2000/svg">
<path d="M36.9287 21.0033C37.0073 21.55 36.5523 22 36 22C35.4477 22 35.0101 21.5479 34.9003 21.0066C34.7065 20.0506 34.2355 19.1645 33.5355 18.4645C32.5979 17.5268 31.3261 17 30 17C28.6739 17 27.4021 17.5268 26.4645 18.4645C25.7645 19.1645 25.2935 20.0506 25.0997 21.0066C24.9899 21.5479 24.5523 22 24 22C23.4477 22 22.9927 21.55 23.0713 21.0033C23.2853 19.5153 23.9747 18.1258 25.0503 17.0503C26.363 15.7375 28.1435 15 30 15C31.8565 15 33.637 15.7375 34.9497 17.0503C36.0253 18.1258 36.7147 19.5153 36.9287 21.0033Z" fill="#1DAEFF"/>
<path d="M42.0009 29C41.4844 29.0019 40.9775 29.1398 40.5313 29.4C40.2618 28.9724 39.8886 28.6198 39.4464 28.3751C39.0043 28.1303 38.5074 28.0013 38.0021 28C37.4856 28.0019 36.9787 28.1398 36.5325 28.4C36.1688 27.8275 35.6219 27.3952 34.981 27.1737C34.3401 26.9521 33.643 26.9543 33.0036 27.18V22C33.0036 21.2043 32.6876 20.4413 32.1251 19.8787C31.5627 19.3161 30.7999 19 30.0044 19C29.209 19 28.4462 19.3161 27.8837 19.8787C27.3213 20.4413 27.0053 21.2043 27.0053 22V33.1L24.776 31.58C24.2649 31.1993 23.6437 30.9957 23.0065 31C22.4117 30.9985 21.8298 31.174 21.335 31.5042C20.8401 31.8344 20.4545 32.3043 20.2274 32.8542C20.0002 33.4041 19.9416 34.0092 20.0591 34.5925C20.1766 35.1758 20.4648 35.711 20.8871 36.13L28.8848 43.43C30.017 44.4437 31.484 45.0029 33.0036 45H38.0021C39.858 45 41.638 44.2625 42.9504 42.9497C44.2627 41.637 45 39.8565 45 38V32C45 31.2043 44.684 30.4413 44.1216 29.8787C43.5591 29.3161 42.7963 29 42.0009 29ZM43.0006 38C43.0006 39.3261 42.474 40.5978 41.5366 41.5355C40.5992 42.4732 39.3278 43 38.0021 43H33.0036C31.9931 43.0122 31.0125 42.6568 30.2444 42L22.2967 34.7C22.112 34.5137 22.0079 34.2623 22.0068 34C22.0068 33.8143 22.0585 33.6322 22.1561 33.4743C22.2537 33.3163 22.3934 33.1886 22.5594 33.1056C22.7255 33.0225 22.9114 32.9874 23.0963 33.004C23.2812 33.0207 23.4578 33.0886 23.6063 33.2L29.0047 36.9V22C29.0047 21.7348 29.1101 21.4804 29.2975 21.2929C29.485 21.1054 29.7393 21 30.0044 21C30.2696 21 30.5239 21.1054 30.7113 21.2929C30.8988 21.4804 31.0041 21.7348 31.0041 22V33H33.0036V30C33.0036 29.7348 33.1089 29.4804 33.2964 29.2929C33.4838 29.1054 33.7381 29 34.0033 29C34.2684 29 34.5227 29.1054 34.7102 29.2929C34.8976 29.4804 35.003 29.7348 35.003 30V33H37.0024V31C37.0024 30.7348 37.1077 30.4804 37.2952 30.2929C37.4827 30.1054 37.7369 30 38.0021 30C38.2672 30 38.5215 30.1054 38.709 30.2929C38.8965 30.4804 39.0018 30.7348 39.0018 31V33H41.0012V32C41.0012 31.7348 41.1065 31.4804 41.294 31.2929C41.4815 31.1054 41.7358 31 42.0009 31C42.266 31 42.5203 31.1054 42.7078 31.2929C42.8953 31.4804 43.0006 31.7348 43.0006 32V38Z" fill="#1DAEFF"/>
<g filter="url(#filter0_d)">
<circle cx="33" cy="30" r="26" stroke="#1DAEFF" stroke-width="2"/>
</g>
<defs>
<filter id="filter0_d" x="0" y="0" width="66" height="66" filterUnits="userSpaceOnUse" color-interpolation-filters="sRGB">
<feFlood flood-opacity="0" result="BackgroundImageFix"/>
<feColorMatrix in="SourceAlpha" type="matrix" values="0 0 0 0 0 0 0 0 0 0 0 0 0 0 0 0 0 0 127 0"/>
<feOffset dy="3"/>
<feGaussianBlur stdDeviation="3"/>
<feColorMatrix type="matrix" values="0 0 0 0 0 0 0 0 0 0 0 0 0 0 0 0 0 0 0.25 0"/>
<feBlend mode="normal" in2="BackgroundImageFix" result="effect1_dropShadow"/>
<feBlend mode="normal" in="SourceGraphic" in2="effect1_dropShadow" result="shape"/>
</filter>
</defs>
</svg>
