<svg width="48" height="51" viewBox="0 0 48 51" fill="none" xmlns="http://www.w3.org/2000/svg">
<rect x="5.29688" y="8.5" width="8.59184" height="3" rx="0.5" stroke="white"/>
<rect x="0.5" y="47.5" width="46" height="3" rx="0.5" stroke="white"/>
<rect x="24.4805" y="8.5" width="8.59184" height="3" rx="0.5" stroke="white"/>
<path d="M8.63281 7V6C8.63281 3.23858 10.8714 1 13.6328 1H16.3063" stroke="white" stroke-linecap="round" stroke-linejoin="round"/>
<path d="M26.8574 7V6C26.8574 3.23858 29.096 1 31.8574 1H34.5309" stroke="white" stroke-linecap="round" stroke-linejoin="round"/>
<path d="M11.5098 7V6.6C11.5098 5.16406 12.6738 4 14.1098 4H18.7036" stroke="white" stroke-linecap="round" stroke-linejoin="round"/>
<path d="M29.7344 7V6.6C29.7344 5.16406 30.8984 4 32.3344 4H36.9283" stroke="white" stroke-linecap="round" stroke-linejoin="round"/>
<path d="M18.2246 0.5C17.9485 0.5 17.7246 0.723858 17.7246 1C17.7246 1.27614 17.9485 1.5 18.2246 1.5V0.5ZM22.5409 1.5C22.8171 1.5 23.0409 1.27614 23.0409 1C23.0409 0.723858 22.8171 0.5 22.5409 0.5V1.5ZM18.2246 1.5H22.5409V0.5H18.2246V1.5Z" fill="white"/>
<path d="M36.4492 0.5C36.1731 0.5 35.9492 0.723858 35.9492 1C35.9492 1.27614 36.1731 1.5 36.4492 1.5V0.5ZM40.7655 1.5C41.0417 1.5 41.2655 1.27614 41.2655 1C41.2655 0.723858 41.0417 0.5 40.7655 0.5V1.5ZM36.4492 1.5H40.7655V0.5H36.4492V1.5Z" fill="white"/>
<path d="M21.1016 3.5C20.8254 3.5 20.6016 3.72386 20.6016 4C20.6016 4.27614 20.8254 4.5 21.1016 4.5V3.5ZM23.0199 4.5C23.2961 4.5 23.5199 4.27614 23.5199 4C23.5199 3.72386 23.2961 3.5 23.0199 3.5V4.5ZM21.1016 4.5H23.0199V3.5H21.1016V4.5Z" fill="white"/>
<path d="M39.3262 3.5C39.05 3.5 38.8262 3.72386 38.8262 4C38.8262 4.27614 39.05 4.5 39.3262 4.5V3.5ZM41.2445 4.5C41.5207 4.5 41.7445 4.27614 41.7445 4C41.7445 3.72386 41.5207 3.5 41.2445 3.5V4.5ZM39.3262 4.5H41.2445V3.5H39.3262V4.5Z" fill="white"/>
<path d="M4.79688 41L6.71524 11.5H12.4703L13.4295 24L9.59279 24.5V41H4.79688Z" stroke="white"/>
<path d="M1.91797 47L2.33074 42.8042C2.43146 41.7804 3.2924 41 4.32113 41H9.59144" stroke="white"/>
<path d="M43.6423 20.082V47.582C31.6525 47.582 9.59132 47.4997 9.59132 47.4997C9.59132 47.4997 9.59132 31.833 9.59132 24.4997L7.19336 24.9997L46.5199 19.5" stroke="white" stroke-linecap="round" stroke-linejoin="round"/>
<path d="M26 47V38.5C26 37.1193 27.1193 36 28.5 36V36C29.8807 36 31 37.1193 31 38.5V47" stroke="white" stroke-linecap="round" stroke-linejoin="round"/>
<path d="M33 47V38.5C33 37.1193 34.1193 36 35.5 36V36C36.8807 36 38 37.1193 38 38.5V47" stroke="white" stroke-linecap="round" stroke-linejoin="round"/>
<path d="M13.4277 28.5C13.1516 28.5 12.9277 28.7239 12.9277 29C12.9277 29.2761 13.1516 29.5 13.4277 29.5V28.5ZM21.5808 29.5C21.8569 29.5 22.0808 29.2761 22.0808 29C22.0808 28.7239 21.8569 28.5 21.5808 28.5V29.5ZM13.4277 29.5H21.5808V28.5H13.4277V29.5Z" fill="white"/>
<path d="M13.4277 31.5C13.1516 31.5 12.9277 31.7239 12.9277 32C12.9277 32.2761 13.1516 32.5 13.4277 32.5V31.5ZM21.5808 32.5C21.8569 32.5 22.0808 32.2761 22.0808 32C22.0808 31.7239 21.8569 31.5 21.5808 31.5V32.5ZM13.4277 32.5H21.5808V31.5H13.4277V32.5Z" fill="white"/>
<path d="M13.4277 34.5C13.1516 34.5 12.9277 34.7239 12.9277 35C12.9277 35.2761 13.1516 35.5 13.4277 35.5V34.5ZM21.5808 35.5C21.8569 35.5 22.0808 35.2761 22.0808 35C22.0808 34.7239 21.8569 34.5 21.5808 34.5V35.5ZM13.4277 35.5H21.5808V34.5H13.4277V35.5Z" fill="white"/>
<path d="M24.459 22.5L25.4182 11.5H32.1325L33.0916 21.5" stroke="white"/>
</svg>
