<svg width="66" height="66" viewBox="0 0 66 66" fill="none" xmlns="http://www.w3.org/2000/svg">
<g filter="url(#filter0_d)">
<circle cx="33" cy="30" r="26" stroke="#1DAEFF" stroke-width="2"/>
</g>
<path d="M25 24.5V18H46V35.5H35.5" stroke="#1DAEFF" stroke-width="2"/>
<path d="M19.1926 44.0001C17.9926 35.6001 22.6926 33.1668 25.1926 33.0001C27.5737 33.0001 30.0445 32.1126 32.2223 31.0706C34.2293 30.1104 35.9266 28.6222 37.4626 27.0126C42.2497 21.9964 40.6924 25.5002 40.6924 25.5002L39.9821 26.9208C39.8091 27.2668 39.8769 27.6847 40.1504 27.9582C40.7563 28.564 40.8508 29.5128 40.3355 30.1973C38.7727 32.2736 36.345 35.0781 35.1924 36.0001C32.6924 38 32.859 38.5 32.6924 39.5V44.0001H19.1926Z" stroke="#1DAEFF" stroke-width="2"/>
<path d="M30.1465 28.3242C30.1465 30.5334 28.3556 32.3242 26.1465 32.3242C23.9373 32.3242 22.1465 30.5334 22.1465 28.3242C22.1465 26.1151 23.9373 24.3242 26.1465 24.3242C28.3556 24.3242 30.1465 26.1151 30.1465 28.3242Z" stroke="#1DAEFF" stroke-width="2"/>
<rect x="32.1924" y="16" width="8" height="4" fill="#1DAEFF"/>
<defs>
<filter id="filter0_d" x="0" y="0" width="66" height="66" filterUnits="userSpaceOnUse" color-interpolation-filters="sRGB">
<feFlood flood-opacity="0" result="BackgroundImageFix"/>
<feColorMatrix in="SourceAlpha" type="matrix" values="0 0 0 0 0 0 0 0 0 0 0 0 0 0 0 0 0 0 127 0"/>
<feOffset dy="3"/>
<feGaussianBlur stdDeviation="3"/>
<feColorMatrix type="matrix" values="0 0 0 0 0 0 0 0 0 0 0 0 0 0 0 0 0 0 0.25 0"/>
<feBlend mode="normal" in2="BackgroundImageFix" result="effect1_dropShadow"/>
<feBlend mode="normal" in="SourceGraphic" in2="effect1_dropShadow" result="shape"/>
</filter>
</defs>
</svg>
