<svg width="47" height="51" viewBox="0 0 47 51" fill="none" xmlns="http://www.w3.org/2000/svg">
<path d="M44.9781 27.6492C44.9329 27.9216 45.1169 28.1797 45.3892 28.2257C45.6614 28.2716 45.9188 28.088 45.964 27.8156L44.9781 27.6492ZM45.997 24.5654L46.49 24.6486C46.4911 24.6421 46.492 24.6354 46.4929 24.6288L45.997 24.5654ZM44.8351 22.5285L44.7121 23.0131L44.8351 22.5285ZM44.7508 21.9906C44.4833 21.922 44.2114 22.0833 44.1434 22.3509C44.0755 22.6186 44.2373 22.8912 44.5048 22.9598L44.7508 21.9906ZM37.0293 38.8979L36.9183 39.3854L36.9183 39.3854L37.0293 38.8979ZM36.3595 37.7266L36.8359 37.8788L36.3595 37.7266ZM41.5582 21.3005L41.0818 21.1483L41.5582 21.3005ZM44.6894 22.044L45.1831 22.1223L45.1831 22.1223L44.6894 22.044ZM42.0406 39.0478L41.5469 38.9695L42.0406 39.0478ZM40.9329 39.7969L40.822 40.2845L40.822 40.2845L40.9329 39.7969ZM43.4536 20.2189L43.3427 20.7065L43.4536 20.2189ZM37.3653 39.4605L37.4828 38.9745C37.3538 38.943 37.2176 38.9641 37.1044 39.0332C36.9912 39.1023 36.9102 39.2138 36.8794 39.3429L37.3653 39.4605ZM35.2396 44.1471L34.8187 43.8764C34.7457 43.9905 34.7221 44.1295 34.7534 44.2615L35.2396 44.1471ZM36.6735 50.195L36.1873 50.3094C36.2318 50.497 36.3798 50.6426 36.5679 50.6837C36.7559 50.7249 36.9507 50.6544 37.0685 50.5023L36.6735 50.195ZM40.3547 45.4467L40.7497 45.754C40.8359 45.6429 40.8712 45.5006 40.847 45.3618L40.3547 45.4467ZM40.3398 40.1877L40.8258 40.3053C40.8899 40.0372 40.7251 39.7672 40.4573 39.7017L40.3398 40.1877ZM38.3406 45.0942C38.4016 44.8248 38.2328 44.5565 37.9636 44.4948C37.6944 44.4332 37.4268 44.6015 37.3659 44.8708L38.3406 45.0942ZM45.964 27.8156L46.49 24.6486L45.5041 24.4822L44.9781 27.6492L45.964 27.8156ZM44.9582 22.0439L44.7508 21.9906L44.5048 22.9598L44.7121 23.0131L44.9582 22.0439ZM46.4929 24.6288C46.6257 23.5674 46.1883 22.3596 44.9582 22.0439L44.7121 23.0131C45.2725 23.1569 45.5978 23.7302 45.5012 24.5021L46.4929 24.6288ZM36.8359 37.8788L42.0346 21.4526L41.0818 21.1483L35.8831 37.5745L36.8359 37.8788ZM44.1956 21.9658L41.5469 38.9695L42.5344 39.126L45.1831 22.1223L44.1956 21.9658ZM41.5469 38.9695C41.5099 39.2071 41.2792 39.3636 41.0439 39.3094L40.822 40.2845C41.6213 40.4686 42.4081 39.937 42.5344 39.126L41.5469 38.9695ZM43.3427 20.7065C43.9133 20.8379 44.2856 21.3883 44.1956 21.9658L45.1831 22.1223C45.3541 21.0249 44.6466 19.9806 43.5645 19.7314L43.3427 20.7065ZM42.0346 21.4526C42.2091 20.9011 42.7777 20.5763 43.3427 20.7065L43.5645 19.7314C42.4932 19.4846 41.4134 20.1004 41.0818 21.1483L42.0346 21.4526ZM37.1402 38.4103C36.9027 38.3556 36.7627 38.11 36.8359 37.8788L35.8831 37.5745C35.6332 38.3639 36.1116 39.1996 36.9183 39.3854L37.1402 38.4103ZM41.0439 39.3094L37.1402 38.4103L36.9183 39.3854L40.822 40.2845L41.0439 39.3094ZM36.8794 39.3429L36.3577 41.5238L37.3297 41.759L37.8513 39.5781L36.8794 39.3429ZM36.4228 41.3708L34.8187 43.8764L35.6605 44.4178L37.2646 41.9121L36.4228 41.3708ZM34.7534 44.2615L36.1873 50.3094L37.1597 50.0806L35.7258 44.0326L34.7534 44.2615ZM37.0685 50.5023L40.7497 45.754L39.9597 45.1393L36.2785 49.8877L37.0685 50.5023ZM40.847 45.3618L40.3104 42.2837L39.3259 42.4535L39.8624 45.5315L40.847 45.3618ZM40.3042 42.4862L40.8258 40.3053L39.8538 40.0701L39.3322 42.251L40.3042 42.4862ZM40.4573 39.7017L37.4828 38.9745L37.2479 39.9465L40.2224 40.6737L40.4573 39.7017ZM36.7263 42.1274L39.7007 42.8546L39.9356 41.8826L36.9612 41.1554L36.7263 42.1274ZM37.1609 50.3067L38.3406 45.0942L37.3659 44.8708L36.1861 50.0833L37.1609 50.3067Z" fill="white"/>
<path d="M21.7944 47.0128L8.89684 48.9703C7.25874 49.2189 5.73164 48.0921 5.48595 46.4536L0.711696 14.6127V14.6127C0.580677 13.7389 1.18263 12.9231 2.05621 12.7905L2.63768 12.7022L3.17145 16.2621L2.60806 12.5047C2.36238 10.8662 3.49115 9.33635 5.12925 9.08773L21.2716 6.63778M21.2716 6.63778L21.9536 11.1862C22.1993 12.8248 23.7264 13.9515 25.3645 13.7029L29.6091 13.0587M21.2716 6.63778L29.6091 13.0587M29.6091 13.0587L33.6124 39.7575C33.8581 41.3961 32.7293 42.9259 31.0912 43.1745L30.8124 43.2168M3.76453 20.2175L7.29332 43.752C7.539 45.3906 9.06611 46.5173 10.7042 46.2687L30.8124 43.2168M30.8124 43.2168V43.2168C31.009 44.5275 30.106 45.7513 28.7957 45.9502L28.1037 46.0552L25.0392 46.5203" stroke="white" stroke-linecap="round" stroke-linejoin="round"/>
<path d="M7.81641 14.3438L19.2884 12.6026" stroke="white" stroke-linecap="round" stroke-linejoin="round"/>
<path d="M7.30078 21.7029L27.0801 18.7009" stroke="white" stroke-linecap="round" stroke-linejoin="round"/>
<path d="M8.36914 28.8242L28.1485 25.8223" stroke="white" stroke-linecap="round" stroke-linejoin="round"/>
<path d="M7.6582 24.0764L27.4376 21.0745" stroke="white" stroke-linecap="round" stroke-linejoin="round"/>
<path d="M9.67383 37.5256L17.5856 36.3249" stroke="white" stroke-linecap="round" stroke-linejoin="round"/>
<path d="M8.01367 26.4507L27.793 23.4487" stroke="white" stroke-linecap="round" stroke-linejoin="round"/>
<path d="M39 36.5L40.5 30.5" stroke="white" stroke-linecap="round"/>
<path d="M35.4176 20.7243L34.1776 22.0174L31.3093 3.69542C31.1385 2.60414 31.8842 1.57824 32.975 1.40401L33.5282 1.31563C34.619 1.1414 35.6417 1.88481 35.8125 2.97609L38.6808 21.2981L37.1063 20.4546L36.4292 21.6578L35.4176 20.7243Z" stroke="white" stroke-width="0.8" stroke-linecap="round" stroke-linejoin="round"/>
<path d="M35.4184 20.7244L33.0352 5.50098" stroke="white" stroke-width="0.8"/>
<path d="M37.1059 20.4552L34.7227 5.23169" stroke="white" stroke-width="0.8"/>
<path d="M31.4609 4.65747L35.9641 3.93814" stroke="white" stroke-width="0.8"/>
<path d="M31.627 5.72583L36.1301 5.0065" stroke="white" stroke-width="0.8"/>
<path d="M34.1777 22.0173L37.1401 26.198L38.6809 21.298" stroke="white" stroke-width="0.8" stroke-linecap="round" stroke-linejoin="round"/>
<path d="M35.8635 24.3039C36.4239 23.9199 37.1262 23.8078 37.7765 23.9983L38.0033 23.2301C37.1228 22.9721 36.1719 23.124 35.4132 23.6438L35.8635 24.3039Z" fill="white"/>
</svg>
