<svg width="47" height="51" viewBox="0 0 47 51" fill="none" xmlns="http://www.w3.org/2000/svg">
<path d="M6.50781 26.3926C6.50781 25.0119 7.6271 23.8926 9.00781 23.8926H24.4175V29.0374H9.00781C7.6271 29.0374 6.50781 27.9181 6.50781 26.5374V26.3926Z" stroke="white"/>
<path d="M24.4863 23.8926H26.5105V29.0374H24.4863V23.8926Z" stroke="white"/>
<path d="M29.4141 23.8926H31.2699V29.0374H29.4141V23.8926Z" stroke="white"/>
<rect x="26.5566" y="22.21" width="2.80783" height="8.5083" rx="1.40392" stroke="white"/>
<rect x="31.3184" y="20.3086" width="12.3274" height="12.3116" stroke="white"/>
<path d="M30.3777 18.8668C30.3726 18.0892 31.0016 17.4561 31.7793 17.4561H43.1825C43.953 17.4561 44.5791 18.0781 44.5841 18.8486C44.5892 19.6263 43.9602 20.2594 43.1825 20.2594H31.7793C31.0088 20.2594 30.3827 19.6374 30.3777 18.8668Z" stroke="white"/>
<path d="M44.5852 34.0619C44.5903 34.8395 43.9613 35.4727 43.1836 35.4727L31.7804 35.4727C31.0099 35.4727 30.3838 34.8507 30.3788 34.0801C30.3737 33.3025 31.0027 32.6693 31.7804 32.6693L43.1836 32.6693C43.9541 32.6693 44.5802 33.2913 44.5852 34.0619Z" stroke="white"/>
<rect x="28.4609" y="13.6523" width="18.0392" height="3.75415" rx="1.87708" stroke="white"/>
<rect x="46.5" y="39.2754" width="18.0392" height="3.75415" rx="1.87708" transform="rotate(-180 46.5 39.2754)" stroke="white"/>
<mask id="path-10-inside-1" fill="white">
<path fill-rule="evenodd" clip-rule="evenodd" d="M18.3684 42.6448C18.3684 41.6231 19.1966 40.7949 20.2183 40.7949H39.978C40.9997 40.7949 41.8279 41.6231 41.8279 42.6448C41.8279 43.4319 41.3364 44.1041 40.6435 44.3713C41.135 45.1999 41.9008 46.1668 42.6346 46.9179H44.8536C45.9582 46.9179 46.8536 47.8133 46.8536 48.9179V48.9995C46.8536 50.104 45.9582 50.9995 44.8536 50.9995H15.2832C14.1786 50.9995 13.2832 50.104 13.2832 48.9995V48.9179C13.2832 47.8133 14.1786 46.9179 15.2832 46.9179H18.1229C18.8595 46.1468 19.4242 45.1746 19.7893 44.4447C18.9745 44.2512 18.3684 43.5188 18.3684 42.6448Z"/>
</mask>
<path d="M40.6435 44.3713L40.2837 43.4383C40.0091 43.5443 39.7951 43.7658 39.6987 44.0439C39.6023 44.322 39.6333 44.6284 39.7835 44.8815L40.6435 44.3713ZM42.6346 46.9179L41.9194 47.6167C42.1075 47.8093 42.3654 47.9179 42.6346 47.9179V46.9179ZM18.1229 46.9179V47.9179C18.396 47.9179 18.6573 47.8062 18.8459 47.6087L18.1229 46.9179ZM19.7893 44.4447L20.6837 44.8921C20.8203 44.6189 20.8246 44.2983 20.6954 44.0215C20.5661 43.7448 20.3175 43.5423 20.0203 43.4717L19.7893 44.4447ZM20.2183 39.7949C18.6444 39.7949 17.3684 41.0709 17.3684 42.6448H19.3684C19.3684 42.1754 19.7489 41.7949 20.2183 41.7949V39.7949ZM39.978 39.7949H20.2183V41.7949H39.978V39.7949ZM42.8279 42.6448C42.8279 41.0709 41.552 39.7949 39.978 39.7949V41.7949C40.4474 41.7949 40.8279 42.1754 40.8279 42.6448H42.8279ZM41.0034 45.3044C42.0691 44.8933 42.8279 43.8589 42.8279 42.6448H40.8279C40.8279 43.0048 40.6036 43.3149 40.2837 43.4383L41.0034 45.3044ZM43.3499 46.2191C42.6612 45.5141 41.9475 44.6094 41.5036 43.8612L39.7835 44.8815C40.3225 45.7903 41.1405 46.8196 41.9194 47.6167L43.3499 46.2191ZM42.6346 47.9179H44.8536V45.9179H42.6346V47.9179ZM44.8536 47.9179C45.4059 47.9179 45.8536 48.3656 45.8536 48.9179H47.8536C47.8536 47.2611 46.5105 45.9179 44.8536 45.9179V47.9179ZM45.8536 48.9179V48.9995H47.8536V48.9179H45.8536ZM45.8536 48.9995C45.8536 49.5518 45.4059 49.9995 44.8536 49.9995V51.9995C46.5105 51.9995 47.8536 50.6563 47.8536 48.9995H45.8536ZM44.8536 49.9995H15.2832V51.9995H44.8536V49.9995ZM15.2832 49.9995C14.7309 49.9995 14.2832 49.5518 14.2832 48.9995H12.2832C12.2832 50.6563 13.6263 51.9995 15.2832 51.9995V49.9995ZM14.2832 48.9995V48.9179H12.2832V48.9995H14.2832ZM14.2832 48.9179C14.2832 48.3656 14.7309 47.9179 15.2832 47.9179V45.9179C13.6263 45.9179 12.2832 47.2611 12.2832 48.9179H14.2832ZM15.2832 47.9179H18.1229V45.9179H15.2832V47.9179ZM18.895 43.9973C18.5482 44.6905 18.0363 45.561 17.3998 46.2271L18.8459 47.6087C19.6828 46.7327 20.3001 45.6588 20.6837 44.8921L18.895 43.9973ZM17.3684 42.6448C17.3684 43.9925 18.303 45.1195 19.5583 45.4176L20.0203 43.4717C19.646 43.3828 19.3684 43.045 19.3684 42.6448H17.3684Z" fill="white" mask="url(#path-10-inside-1)"/>
<path d="M22.4785 46.9277C22.2024 46.9277 21.9785 47.1516 21.9785 47.4277C21.9785 47.7039 22.2024 47.9277 22.4785 47.9277L22.4785 46.9277ZM42.4018 46.9277L22.4785 46.9277L22.4785 47.9277L42.4018 47.9277L42.4018 46.9277Z" fill="white"/>
<path d="M14.8922 41.9467L14.1186 41.2543C14.1552 41.0194 14.1741 40.7795 14.1741 40.5396C14.1741 40.2998 14.1552 40.0599 14.1186 39.825L14.8922 39.1326C14.9506 39.0803 14.9923 39.0106 15.012 38.9329C15.0316 38.8551 15.0281 38.773 15.0021 38.6973L14.9914 38.6652C14.7784 38.042 14.4595 37.4644 14.05 36.9601L14.0288 36.9342C13.9791 36.873 13.9129 36.8291 13.8389 36.8081C13.7649 36.7871 13.6865 36.7901 13.6142 36.8167L12.6539 37.174C12.2996 36.8699 11.9039 36.63 11.4763 36.4618L11.2908 35.4109C11.2769 35.3318 11.2402 35.259 11.1858 35.2023C11.1313 35.1455 11.0617 35.1074 10.9861 35.0931L10.9542 35.0869C10.3388 34.9707 9.69154 34.9707 9.07616 35.0869L9.04427 35.0931C8.96867 35.1074 8.89903 35.1455 8.84459 35.2023C8.79016 35.259 8.75352 35.3318 8.73953 35.4109L8.5529 36.4668C8.12873 36.635 7.73372 36.8747 7.38355 37.1765L6.41617 36.8167C6.34385 36.7899 6.26545 36.7868 6.19139 36.8078C6.11734 36.8288 6.05114 36.8729 6.00158 36.9342L5.98032 36.9601C5.57134 37.4648 5.25246 38.0423 5.03893 38.6652L5.0283 38.6973C4.97515 38.8519 5.01885 39.025 5.13815 39.1326L5.92127 39.8324C5.88465 40.0648 5.86693 40.3022 5.86693 40.5384C5.86693 40.7758 5.88465 41.0132 5.92127 41.2444L5.13815 41.9442C5.0798 41.9965 5.03803 42.0662 5.01841 42.1439C4.99879 42.2216 5.00224 42.3038 5.0283 42.3794L5.03893 42.4116C5.25273 43.0348 5.56928 43.6097 5.98032 44.1166L6.00158 44.1426C6.05126 44.2037 6.11746 44.2477 6.19147 44.2687C6.26548 44.2896 6.34382 44.2866 6.41617 44.2601L7.38355 43.9003C7.73554 44.2032 8.12886 44.4431 8.5529 44.61L8.73953 45.6659C8.75352 45.745 8.79016 45.8177 8.84459 45.8745C8.89903 45.9312 8.96867 45.9693 9.04427 45.9837L9.07616 45.9898C9.6972 46.1067 10.3332 46.1067 10.9542 45.9898L10.9861 45.9837C11.0617 45.9693 11.1313 45.9312 11.1858 45.8745C11.2402 45.8177 11.2769 45.745 11.2908 45.6659L11.4763 44.6149C11.9037 44.4472 12.3016 44.2066 12.6539 43.9027L13.6142 44.2601C13.6865 44.2868 13.7649 44.29 13.839 44.269C13.913 44.248 13.9792 44.2039 14.0288 44.1426L14.05 44.1166C14.4611 43.6085 14.7776 43.0348 14.9914 42.4116L15.0021 42.3794C15.0552 42.2274 15.0115 42.0543 14.8922 41.9467ZM13.2799 39.9709C13.3095 40.1576 13.3248 40.3492 13.3248 40.5409C13.3248 40.7325 13.3095 40.9242 13.2799 41.1109L13.202 41.6067L14.0843 42.3968C13.9505 42.7193 13.7817 43.0247 13.5811 43.3068L12.485 42.9L12.1141 43.219C11.8318 43.4613 11.5176 43.6517 11.1775 43.7853L10.7274 43.9621L10.516 45.1614C10.1824 45.201 9.8456 45.201 9.51201 45.1614L9.30058 43.9596L8.8541 43.7803C8.51747 43.6468 8.20446 43.4564 7.92452 43.2153L7.55364 42.895L6.45043 43.3055C6.24963 43.0224 6.0819 42.717 5.94725 42.3955L6.83903 41.598L6.76225 41.1034C6.73391 40.9192 6.71855 40.7288 6.71855 40.5409C6.71855 40.3517 6.73273 40.1625 6.76225 39.9783L6.83903 39.4837L5.94725 38.6862C6.08072 38.3635 6.24963 38.0593 6.45043 37.7762L7.55364 38.1867L7.92452 37.8664C8.20446 37.6253 8.51747 37.4349 8.8541 37.3014L9.30176 37.1246L9.51319 35.9228C9.8451 35.8832 10.1841 35.8832 10.5172 35.9228L10.7286 37.1221L11.1786 37.2989C11.5176 37.4325 11.833 37.6229 12.1153 37.8652L12.4862 38.1842L13.5823 37.7774C13.7831 38.0606 13.9508 38.366 14.0855 38.6874L13.2031 39.4775L13.2799 39.9709ZM10.0164 38.2411C8.86827 38.2411 7.93751 39.2154 7.93751 40.4172C7.93751 41.619 8.86827 42.5933 10.0164 42.5933C11.1645 42.5933 12.0952 41.619 12.0952 40.4172C12.0952 39.2154 11.1645 38.2411 10.0164 38.2411ZM10.9518 41.3965C10.8292 41.5253 10.6833 41.6274 10.5228 41.697C10.3622 41.7666 10.1901 41.8023 10.0164 41.802C9.6632 41.802 9.33129 41.6574 9.08088 41.3965C8.95783 41.268 8.86026 41.1154 8.79377 40.9473C8.72728 40.7793 8.69319 40.5991 8.69346 40.4172C8.69346 40.0475 8.83166 39.7001 9.08088 39.438C9.33129 39.1758 9.6632 39.0324 10.0164 39.0324C10.3695 39.0324 10.7014 39.1758 10.9518 39.438C11.0749 39.5664 11.1725 39.719 11.239 39.8871C11.3055 40.0552 11.3395 40.2353 11.3393 40.4172C11.3393 40.7869 11.2011 41.1344 10.9518 41.3965Z" fill="white"/>
<path d="M24.0403 34.2663L23.1655 34.0313C23.1015 33.834 23.0217 33.6399 22.9273 33.4531C22.8329 33.2664 22.7237 33.0871 22.6027 32.9186L22.9323 32.0758C22.9572 32.0121 22.9623 31.9415 22.9469 31.8733C22.9316 31.8051 22.8966 31.7425 22.8465 31.6938L22.8256 31.673C22.4144 31.2716 21.9387 30.9472 21.4214 30.7155L21.3947 30.7036C21.3319 30.6755 21.2631 30.6673 21.1972 30.6801C21.1314 30.6928 21.0715 30.7259 21.0257 30.775L20.4189 31.4304C20.0233 31.3328 19.6208 31.3015 19.2218 31.3386L18.6636 30.5933C18.6216 30.5372 18.5644 30.495 18.4997 30.4722C18.435 30.4494 18.3658 30.4471 18.3013 30.4656L18.274 30.4733C17.7492 30.6246 17.2454 30.8788 16.8121 31.211L16.7897 31.2284C16.7365 31.2692 16.6973 31.3262 16.6773 31.3918C16.6573 31.4573 16.6574 31.5284 16.6776 31.5954L16.9481 32.4907C16.6841 32.7882 16.471 33.13 16.3173 33.5024L15.4226 33.6023C15.3557 33.6099 15.2935 33.6383 15.2441 33.6837C15.1947 33.7291 15.1605 33.7894 15.1461 33.8566L15.1398 33.8852C15.0201 34.4386 14.9993 35.0135 15.0783 35.5822L15.0827 35.6114C15.1021 35.7526 15.2043 35.8702 15.3395 35.9071L16.2247 36.1442C16.2877 36.3395 16.3674 36.5313 16.4603 36.7151C16.5538 36.8999 16.6611 37.0778 16.7806 37.2434L16.4465 38.0957C16.4217 38.1593 16.4166 38.23 16.432 38.2982C16.4473 38.3664 16.4823 38.429 16.5324 38.4777L16.5533 38.4985C16.9651 38.8996 17.4379 39.2228 17.9574 39.456L17.9842 39.4679C18.047 39.4959 18.1158 39.5041 18.1817 39.4914C18.2475 39.4786 18.3073 39.4455 18.3532 39.3964L18.9646 38.7364C19.3578 38.8339 19.7584 38.8662 20.1542 38.8295L20.7152 39.5782C20.7573 39.6343 20.8144 39.6765 20.8792 39.6993C20.9439 39.7221 21.0131 39.7244 21.0776 39.7058L21.1048 39.6981C21.6343 39.5451 22.1293 39.2953 22.5668 38.9605L22.5891 38.9431C22.6424 38.9023 22.6816 38.8453 22.7016 38.7797C22.7216 38.7141 22.7215 38.6431 22.7013 38.5761L22.4318 37.6851C22.6985 37.3867 22.9135 37.043 23.0681 36.6682L23.9563 36.5691C24.0231 36.5616 24.0854 36.5332 24.1348 36.4878C24.1842 36.4424 24.2184 36.382 24.2328 36.3149L24.2391 36.2863C24.359 35.7293 24.3795 35.1583 24.3006 34.5893L24.2962 34.5601C24.2777 34.4208 24.1755 34.3032 24.0403 34.2663ZM22.0073 33.3616C22.1038 33.4953 22.1912 33.6385 22.2667 33.7877C22.3422 33.9369 22.4057 34.0921 22.4562 34.249L22.5907 34.6656L23.5886 34.934C23.6115 35.2377 23.6003 35.5417 23.5552 35.8401L22.5418 35.9539L22.3787 36.3479C22.2544 36.6475 22.0848 36.9191 21.8725 37.1567L21.5919 37.4711L21.8995 38.4877C21.6554 38.6496 21.3932 38.7818 21.1179 38.8821L20.4802 38.0296L20.062 38.0654C19.7474 38.0937 19.4288 38.0684 19.116 37.9907L18.7012 37.8871L18.004 38.64C17.7362 38.4984 17.4854 38.3266 17.2541 38.1292L17.6342 37.1581L17.3798 36.8033C17.2851 36.671 17.1982 36.5288 17.1242 36.3825C17.0497 36.2353 16.9863 36.0825 16.9368 35.9275L16.8018 35.5123L15.7936 35.2418C15.7705 34.9382 15.7822 34.635 15.827 34.3358L16.8474 34.222L17.01 33.827C17.133 33.5294 17.3017 33.2582 17.5111 33.022L17.79 32.7086L17.4814 31.69C17.7242 31.5288 17.9881 31.3957 18.2629 31.2956L18.8997 32.1462L19.3196 32.1071C19.6361 32.0779 19.9566 32.1022 20.2717 32.18L20.686 32.2826L21.3791 31.5354C21.6469 31.6769 21.8977 31.8488 22.1291 32.0461L21.7533 33.0077L22.0073 33.3616ZM18.7859 33.297C17.8922 33.748 17.5512 34.872 18.0244 35.8075C18.4976 36.743 19.6057 37.1359 20.4994 36.6849C21.3931 36.2339 21.7341 35.1099 21.2609 34.1744C20.7877 33.2389 19.6796 32.846 18.7859 33.297ZM20.7564 35.3858C20.7116 35.5342 20.6383 35.671 20.5408 35.7883C20.4432 35.9055 20.3233 36.0009 20.1879 36.0689C19.913 36.2076 19.5976 36.2254 19.3 36.1207C19.1536 36.069 19.0176 35.9885 18.8997 35.8838C18.7817 35.7791 18.6843 35.6523 18.6129 35.5106C18.4673 35.2228 18.4381 34.8981 18.5289 34.5961C18.6206 34.2937 18.8225 34.0517 19.0974 33.913C19.3723 33.7743 19.6872 33.7555 19.9853 33.8612C20.1317 33.9129 20.2677 33.9934 20.3856 34.0981C20.5036 34.2028 20.601 34.3296 20.6724 34.4713C20.818 34.7591 20.8472 35.0838 20.7564 35.3858Z" fill="white"/>
<path d="M13.5155 32.5003C11.5132 32.0004 8.40615 31.3264 5.00546 33.9998C1.71947 36.583 0.931276 39.7136 0.514057 43.2834C0.445405 43.8709 0.909479 44.3816 1.50089 44.3816L1.89124 44.3817C2.44352 44.3817 2.89122 44.8294 2.89122 45.3817V48.4241C2.89122 49.5287 3.78666 50.4241 4.89122 50.4241H12.4089" stroke="white" stroke-linecap="round" stroke-linejoin="round"/>
<path d="M2.89258 47.4121C3.39351 47.5799 4.59575 47.6135 5.39724 46.405" stroke="white" stroke-linecap="round"/>
<path d="M10.132 11.9947C10.132 12.6131 9.6299 13.1154 9.00934 13.1154C8.38877 13.1154 7.88672 12.6131 7.88672 11.9947C7.88672 11.3763 8.38877 10.874 9.00934 10.874C9.6299 10.874 10.132 11.3763 10.132 11.9947Z" stroke="white"/>
<path d="M9.51172 11L11.5141 7.5" stroke="white"/>
<path d="M9.17131 3.70117V1H7.00781H11.3348" stroke="white"/>
<path d="M15.0612 3.61543C15.2401 3.40513 15.5559 3.37954 15.7664 3.55827L16.7144 4.36317C16.9249 4.5419 16.9505 4.85726 16.7715 5.06756L15.9659 6.01416C15.7869 6.22446 15.4712 6.25005 15.2607 6.07132L14.3126 5.26642C14.1021 5.08769 14.0766 4.77233 14.2555 4.56204L15.0612 3.61543Z" stroke="white" stroke-linecap="round" stroke-linejoin="round"/>
<path d="M2.24012 3.54355C2.44292 3.35613 2.75945 3.36843 2.94711 3.57101L3.79192 4.48302C3.97958 4.6856 3.9673 5.00176 3.76449 5.18918L2.85127 6.03312C2.64846 6.22053 2.33193 6.20824 2.14428 6.00566L1.29946 5.09365C1.1118 4.89106 1.12408 4.57491 1.32689 4.38749L2.24012 3.54355Z" stroke="white" stroke-linecap="round" stroke-linejoin="round"/>
<path d="M15.5186 12C15.5186 15.5893 12.6052 18.5 9.01025 18.5C5.41526 18.5 2.50195 15.5893 2.50195 12C2.50195 8.41071 5.41526 5.5 9.01025 5.5C12.6052 5.5 15.5186 8.41071 15.5186 12Z" stroke="white"/>
<path d="M17.5213 12.0005C17.5213 16.6944 13.7115 20.5005 9.01067 20.5005C4.3098 20.5005 0.5 16.6944 0.5 12.0005C0.5 7.30663 4.3098 3.50049 9.01067 3.50049C13.7115 3.50049 17.5213 7.30663 17.5213 12.0005Z" stroke="white"/>
<path d="M12.7111 10.4681C12.8432 10.7859 12.9353 11.1243 12.9815 11.4773L12.4857 11.542C12.5052 11.6917 12.5153 11.8445 12.5153 12C12.5153 12.1555 12.5052 12.3083 12.4857 12.458L12.9815 12.5227C12.9353 12.8757 12.8432 13.2141 12.7111 13.5319L12.2494 13.3401C12.1313 13.6244 11.9766 13.89 11.7911 14.131L12.1873 14.436C11.974 14.7131 11.7252 14.9614 11.4477 15.1743L11.1434 14.7776C10.9021 14.9627 10.6362 15.117 10.3516 15.2348L10.5428 15.6968C10.2249 15.8284 9.88635 15.9203 9.53335 15.9662L9.46879 15.4704C9.31905 15.4899 9.16613 15.5 9.0106 15.5C8.85507 15.5 8.70215 15.4899 8.55241 15.4704L8.48785 15.9662C8.13486 15.9203 7.79631 15.8284 7.47841 15.6968L7.66964 15.2348C7.38502 15.117 7.11911 14.9627 6.87781 14.7776L6.57349 15.1743C6.29599 14.9614 6.04721 14.7131 5.83394 14.436L6.23014 14.131C6.04459 13.89 5.88991 13.6244 5.7718 13.3401L5.31006 13.5319C5.17805 13.2141 5.08587 12.8757 5.03975 12.5227L5.53553 12.458C5.51598 12.3083 5.50586 12.1555 5.50586 12C5.50586 11.8445 5.51598 11.6917 5.53553 11.542L5.03975 11.4773C5.08587 11.1243 5.17805 10.7859 5.31006 10.4681L5.7718 10.6599C5.88991 10.3756 6.04459 10.11 6.23014 9.86896L5.83394 9.56396C6.04721 9.28692 6.29599 9.03857 6.57349 8.82571L6.87781 9.22243C7.11911 9.03732 7.38502 8.883 7.66964 8.76519L7.47841 8.3032C7.79631 8.17161 8.13486 8.07973 8.48785 8.03377L8.55241 8.52958C8.70215 8.51009 8.85507 8.5 9.0106 8.5C9.16613 8.5 9.31905 8.51009 9.46879 8.52958L9.53335 8.03377C9.88635 8.07973 10.2249 8.17161 10.5428 8.3032L10.3516 8.76519C10.6362 8.883 10.9021 9.03732 11.1434 9.22243L11.4477 8.82571C11.7252 9.03857 11.974 9.28692 12.1873 9.56396L11.7911 9.86896C11.9766 10.11 12.1313 10.3756 12.2494 10.6599L12.7111 10.4681Z" stroke="white" stroke-dasharray="1 1"/>
<path d="M16.5195 20.5H24.5302C25.0825 20.5 25.5302 20.0523 25.5302 19.5V17.5C25.5302 16.9477 25.0825 16.5 24.5302 16.5H21.5243C20.972 16.5 20.5243 16.0523 20.5243 15.5V14C20.5243 13.4477 20.972 13 21.5243 13H23.0284C23.5807 13 24.0284 12.5523 24.0284 12V10" stroke="white" stroke-linecap="round"/>
<path d="M24.0293 11.5H33.5406M33.5406 11.5V10M33.5406 11.5H41.55V10" stroke="white" stroke-linecap="round" stroke-linejoin="round"/>
<path d="M25.7432 2.61538C25.6772 3.50502 25.002 4.23077 24.2607 4.23077C23.5195 4.23077 22.843 3.50519 22.7782 2.61538C22.7108 1.6899 23.3678 1 24.2607 1C25.1536 1 25.8106 1.70673 25.7432 2.61538Z" stroke="white" stroke-linecap="round" stroke-linejoin="round"/>
<path d="M24.2602 5.30762C22.7945 5.30762 21.3069 6.11531 21.0316 7.63983C20.9979 7.82358 21.1026 7.99993 21.2953 7.99993H27.2252C27.418 7.99993 27.5221 7.82358 27.4889 7.63983C27.2134 6.11531 25.7259 5.30762 24.2602 5.30762Z" stroke="white" stroke-miterlimit="10"/>
<path d="M34.503 2.61538C34.437 3.50502 33.7617 4.23077 33.0205 4.23077C32.2792 4.23077 31.6028 3.50519 31.538 2.61538C31.4706 1.6899 32.1276 1 33.0205 1C33.9134 1 34.5704 1.70673 34.503 2.61538Z" stroke="white" stroke-linecap="round" stroke-linejoin="round"/>
<path d="M33.0199 5.30762C31.5543 5.30762 30.0667 6.11531 29.7914 7.63983C29.7577 7.82358 29.8623 7.99993 30.0551 7.99993H35.985C36.1777 7.99993 36.2818 7.82358 36.2486 7.63983C35.9732 6.11531 34.4856 5.30762 33.0199 5.30762Z" stroke="white" stroke-miterlimit="10"/>
<path d="M42.3878 2.61538C42.3217 3.50502 41.6465 4.23077 40.9052 4.23077C40.164 4.23077 39.4876 3.50519 39.4227 2.61538C39.3553 1.6899 40.0124 1 40.9052 1C41.7981 1 42.4552 1.70673 42.3878 2.61538Z" stroke="white" stroke-linecap="round" stroke-linejoin="round"/>
<path d="M40.9047 5.30762C39.439 5.30762 37.9514 6.11531 37.6762 7.63983C37.6425 7.82358 37.7471 7.99993 37.9398 7.99993H43.8698C44.0625 7.99993 44.1666 7.82358 44.1334 7.63983C43.858 6.11531 42.3704 5.30762 40.9047 5.30762Z" stroke="white" stroke-miterlimit="10"/>
<path d="M17.0192 21.5L14.0156 20.5L17.0192 19.5L17.0192 21.5Z" fill="white"/>
</svg>
