<svg width="48" height="50" viewBox="0 0 48 50" fill="none" xmlns="http://www.w3.org/2000/svg">
<path d="M9.24682 6.9195L7.96953 5.53529C7.74278 5.28957 7.66322 4.94451 7.70406 4.61266C8.16262 0.886822 3.11438 0.719599 3.89891 1.56965C4.28782 1.99104 4.77191 2.43853 5.17346 2.79259C5.59797 3.16691 5.65473 3.81747 5.26639 4.22921C4.71309 4.81586 3.99171 5.52353 3.74047 5.51322C3.31228 5.49564 1.28013 2.84687 1.2458 3.70131C1.21147 4.55575 1.56505 6.11351 2.40731 6.74336C3.24942 7.3731 4.17892 7.30603 4.96092 7.28974C5.23066 7.28412 5.48398 7.40343 5.66461 7.60384C6.08126 8.06611 6.87463 8.94424 7.45302 9.57159" stroke="white" stroke-width="0.8" stroke-linecap="round"/>
<path d="M16.4309 4.44024C13.4379 1.44761 10.8725 0.592387 9.58984 2.30253C13.0104 3.15766 13.0104 4.0126 12.5828 4.86757L14.7206 6.57784L16.4309 4.44024Z" stroke="white" stroke-width="0.8" stroke-linecap="round" stroke-linejoin="round"/>
<path d="M16.0394 7.97237C15.7814 7.76442 15.7408 7.38669 15.9487 7.12869L17.0828 5.72171C17.2908 5.46371 17.6685 5.42314 17.9265 5.63109L18.1478 5.80949C18.4058 6.01744 18.4464 6.39517 18.2384 6.65316L17.1044 8.06015C16.8964 8.31815 16.5187 8.35872 16.2607 8.15076L16.0394 7.97237Z" stroke="white" stroke-width="0.8"/>
<path d="M15.1308 6.1559L16.0623 5.00028L16.9149 5.68754L15.9835 6.84316L15.1308 6.1559Z" stroke="white" stroke-width="0.8"/>
<path d="M9.24707 13.3229C9.21303 13.3664 9.15018 13.374 9.10669 13.34L7.07162 11.7473C7.02813 11.7132 7.02047 11.6504 7.05451 11.6069L7.60621 10.902C7.64025 10.8585 7.7031 10.8508 7.74659 10.8848L9.78165 12.4775C9.82515 12.5116 9.83281 12.5744 9.79877 12.6179L9.24707 13.3229Z" stroke="white" stroke-width="0.8"/>
<path d="M8.15886 11.0642L12.8228 5.13842L14.2035 6.2255L9.53959 12.1513L8.15886 11.0642Z" stroke="white" stroke-width="0.8"/>
<mask id="path-7-inside-1" fill="white">
<path fill-rule="evenodd" clip-rule="evenodd" d="M7.27247 11.5896L9.30151 13.1593C8.83279 14.3629 8.44702 14.8925 7.7118 15.8977L7.72486 15.9074L5.14309 19.3829C4.57983 20.1411 3.50854 20.2992 2.75031 19.7359C1.99207 19.1727 1.83402 18.1014 2.39728 17.3432L4.97138 13.878C4.97287 13.8676 4.97437 13.8571 4.97589 13.8465C5.40401 13.2922 5.78571 12.8637 6.41514 12.307C6.65829 12.0919 6.93842 11.8576 7.27247 11.5896Z"/>
</mask>
<path d="M9.30151 13.1593L10.047 13.4496L10.264 12.8924L9.79102 12.5265L9.30151 13.1593ZM7.27247 11.5896L7.76197 10.9569L7.26343 10.5712L6.77182 10.9656L7.27247 11.5896ZM7.7118 15.8977L7.06608 15.4254L6.59728 16.0664L7.23474 16.5399L7.7118 15.8977ZM7.72486 15.9074L8.36706 16.3845L8.84412 15.7423L8.20192 15.2652L7.72486 15.9074ZM5.14309 19.3829L4.50089 18.9058L5.14309 19.3829ZM4.97138 13.878L5.61357 14.3551L5.73477 14.1919L5.7634 13.9907L4.97138 13.878ZM4.97589 13.8465L4.34274 13.3575L4.21411 13.5241L4.18408 13.7323L4.97589 13.8465ZM6.41514 12.307L5.8851 11.7077L5.8851 11.7077L6.41514 12.307ZM9.79102 12.5265L7.76197 10.9569L6.78296 12.2224L8.81201 13.7921L9.79102 12.5265ZM8.35751 16.37C9.10257 15.3514 9.53922 14.7534 10.047 13.4496L8.55605 12.869C8.12637 13.9723 7.79147 14.4337 7.06608 15.4254L8.35751 16.37ZM7.23474 16.5399L7.2478 16.5496L8.20192 15.2652L8.18886 15.2555L7.23474 16.5399ZM7.08267 15.4304L4.50089 18.9058L5.78528 19.86L8.36706 16.3845L7.08267 15.4304ZM4.50089 18.9058C4.2011 19.3094 3.63093 19.3935 3.22737 19.0937L2.27325 20.3781C3.38616 21.2049 4.95855 20.9729 5.78528 19.86L4.50089 18.9058ZM3.22737 19.0937C2.82381 18.794 2.73968 18.2238 3.03947 17.8202L1.75508 16.8661C0.928348 17.979 1.16034 19.5514 2.27325 20.3781L3.22737 19.0937ZM3.03947 17.8202L5.61357 14.3551L4.32918 13.401L1.75508 16.8661L3.03947 17.8202ZM4.18408 13.7323C4.18249 13.7434 4.18092 13.7544 4.17936 13.7653L5.7634 13.9907C5.76482 13.9808 5.76625 13.9708 5.7677 13.9607L4.18408 13.7323ZM5.8851 11.7077C5.2136 12.3017 4.79796 12.7681 4.34274 13.3575L5.60904 14.3355C6.01005 13.8163 6.35781 13.4257 6.94518 12.9062L5.8851 11.7077ZM6.77182 10.9656C6.43094 11.2391 6.14047 11.4818 5.8851 11.7077L6.94518 12.9062C7.17612 12.7019 7.44589 12.4761 7.77312 12.2136L6.77182 10.9656Z" fill="white" mask="url(#path-7-inside-1)"/>
<path d="M6.52148 6.26587L8.09481 8.1029" stroke="white" stroke-width="0.8" stroke-linecap="round" stroke-linejoin="round"/>
<path d="M10.8722 13.8495L15.1633 18.799C15.8276 19.5652 17.0203 19.5535 17.6695 18.7745V18.7745C18.1873 18.153 18.1764 17.2473 17.6437 16.6385L12.5824 10.8545" stroke="white" stroke-width="0.8" stroke-linecap="round" stroke-linejoin="round"/>
<path d="M11.7266 12.5657L15.1471 16.4138" stroke="white" stroke-width="0.8" stroke-linecap="round" stroke-linejoin="round"/>
<path d="M19.8367 45.8984C19.8367 45.5947 20.083 45.3484 20.3867 45.3484H33.999C34.3028 45.3484 34.549 45.5947 34.549 45.8984V48.0005C34.549 48.8565 33.8551 49.5505 32.999 49.5505H21.3867C20.5307 49.5505 19.8367 48.8565 19.8367 48.0005V45.8984Z" stroke="white" stroke-width="0.9"/>
<mask id="path-13-inside-2" fill="white">
<path fill-rule="evenodd" clip-rule="evenodd" d="M29.0515 35.6934C29.0515 35.1411 28.6038 34.6934 28.0515 34.6934H26.3343C25.782 34.6934 25.3343 35.1411 25.3343 35.6934V41.8566C25.3343 42.4089 24.8866 42.8566 24.3343 42.8566H20.3867C19.8344 42.8566 19.3867 43.3043 19.3867 43.8566V44.9178C19.3867 45.4701 19.8344 45.9178 20.3867 45.9178H33.999C34.5513 45.9178 34.999 45.4701 34.999 44.9178V43.8566C34.999 43.3043 34.5513 42.8566 33.999 42.8566H30.0515C29.4992 42.8566 29.0515 42.4089 29.0515 41.8566V35.6934Z"/>
</mask>
<path d="M26.3343 35.5934H28.0515V33.7934H26.3343V35.5934ZM26.2343 41.8566V35.6934H24.4343V41.8566H26.2343ZM20.3867 43.7566H24.3343V41.9566H20.3867V43.7566ZM20.2867 44.9178V43.8566H18.4867V44.9178H20.2867ZM33.999 45.0178H20.3867V46.8178H33.999V45.0178ZM34.099 43.8566V44.9178H35.899V43.8566H34.099ZM30.0515 43.7566H33.999V41.9566H30.0515V43.7566ZM28.1515 35.6934V41.8566H29.9515V35.6934H28.1515ZM30.0515 41.9566C29.9963 41.9566 29.9515 41.9119 29.9515 41.8566H28.1515C28.1515 42.906 29.0022 43.7566 30.0515 43.7566V41.9566ZM35.899 43.8566C35.899 42.8073 35.0484 41.9566 33.999 41.9566V43.7566C34.0543 43.7566 34.099 43.8014 34.099 43.8566H35.899ZM33.999 46.8178C35.0484 46.8178 35.899 45.9672 35.899 44.9178H34.099C34.099 44.9731 34.0543 45.0178 33.999 45.0178V46.8178ZM18.4867 44.9178C18.4867 45.9672 19.3374 46.8178 20.3867 46.8178V45.0178C20.3315 45.0178 20.2867 44.9731 20.2867 44.9178H18.4867ZM20.3867 41.9566C19.3374 41.9566 18.4867 42.8073 18.4867 43.8566H20.2867C20.2867 43.8014 20.3315 43.7566 20.3867 43.7566V41.9566ZM24.4343 41.8566C24.4343 41.9119 24.3895 41.9566 24.3343 41.9566V43.7566C25.3836 43.7566 26.2343 42.906 26.2343 41.8566H24.4343ZM28.0515 35.5934C28.1067 35.5934 28.1515 35.6381 28.1515 35.6934H29.9515C29.9515 34.644 29.1009 33.7934 28.0515 33.7934V35.5934ZM26.3343 33.7934C25.285 33.7934 24.4343 34.644 24.4343 35.6934H26.2343C26.2343 35.6381 26.2791 35.5934 26.3343 35.5934V33.7934Z" fill="white" mask="url(#path-13-inside-2)"/>
<rect x="26.2645" y="0.45" width="1.85511" height="34.8143" rx="0.55" stroke="white" stroke-width="0.9"/>
<rect x="0.45" y="31.8973" width="20.4358" height="1.88293" rx="0.941466" stroke="white" stroke-width="0.9"/>
<path d="M6.94219 40.2596C6.94219 39.7397 7.3637 39.3182 7.88365 39.3182H12.9857C13.5057 39.3182 13.9272 39.7397 13.9272 40.2596C13.9272 40.7796 13.5057 41.2011 12.9857 41.2011H7.88365C7.3637 41.2011 6.94219 40.7796 6.94219 40.2596Z" stroke="white" stroke-width="0.9"/>
<path d="M3.43883 48.0876L2.62094 33.7518L18.0758 33.7518L17.2579 48.0876C17.2111 48.908 16.5322 49.5493 15.7105 49.5493L4.98632 49.5493C4.16457 49.5493 3.48564 48.908 3.43883 48.0876Z" stroke="white" stroke-width="0.9"/>
<path d="M2.7832 31.91C2.93781 30.9823 3.80361 29.3028 6.02996 29.3028C6.49378 28.3751 6.9576 27.4475 8.81289 27.4475C9.27671 26.3446 12.0596 26.345 12.5235 27.4475C13.6057 27.4475 15.7702 27.9115 15.7702 29.7668C16.6979 29.6122 18.5531 29.6837 18.5531 31.91" stroke="white" stroke-width="0.9" stroke-linecap="round" stroke-linejoin="round"/>
<path d="M0.927734 33.3018V38.2591C0.927734 39.3637 1.82316 40.2591 2.92773 40.2591H6.95742" stroke="white" stroke-width="0.9"/>
<path d="M19.9453 33.3018V38.2591C19.9453 39.3637 19.0499 40.2591 17.9453 40.2591H13.9156" stroke="white" stroke-width="0.9"/>
<path d="M3.24609 47.6812H17.1608" stroke="white" stroke-width="0.9"/>
<path d="M7.41992 30.52C7.57453 29.747 8.34757 28.6644 9.73903 29.1286" stroke="white" stroke-width="0.9" stroke-linecap="round" stroke-linejoin="round"/>
<path d="M11.5957 29.5923C12.0595 29.1285 13.9148 29.1283 14.3786 30.5204" stroke="white" stroke-width="0.9" stroke-linecap="round" stroke-linejoin="round"/>
<circle cx="6.63217" cy="25.0001" r="1.08061" stroke="white" stroke-width="0.9"/>
<circle cx="9.69467" cy="20.9183" r="1.08061" stroke="white" stroke-width="0.9"/>
<circle cx="13.7748" cy="23.9796" r="1.08061" stroke="white" stroke-width="0.9"/>
<path d="M46.125 11.356H30.875C30.3917 11.356 30 11.7477 30 12.2309C30 12.7141 30.3917 13.1059 30.875 13.1059H33.3525C33.7527 13.1059 34.144 13.2294 34.4809 13.4453C37.7148 15.518 39.6311 15.5004 42.4919 13.4994C42.8472 13.2508 43.2678 13.1059 43.7015 13.1059H46.125C46.6083 13.1059 47 12.7141 47 12.2309C47 11.7477 46.6083 11.356 46.125 11.356Z" stroke="white" stroke-width="0.8"/>
<path d="M37.2008 2.0893C37.2008 1.84144 37.343 1.64367 37.5326 1.57929C38.2448 1.33749 38.7669 1.3429 39.4657 1.57959C39.6575 1.64455 39.8008 1.84392 39.8008 2.09242V10.7971C39.8008 11.1284 39.5322 11.3971 39.2008 11.3971H37.8008C37.4694 11.3971 37.2008 11.1284 37.2008 10.7971V2.0893Z" stroke="white" stroke-width="0.8"/>
<path d="M42.0996 3.33374V11.2796H46.0576C45.8635 6.26595 45.2228 4.40567 42.0996 3.33374Z" stroke="white" stroke-width="0.8" stroke-linecap="round" stroke-linejoin="round"/>
<path d="M34.6836 3.33374L34.6832 11.2796H30.7257C30.9197 6.26595 31.5604 4.40567 34.6836 3.33374Z" stroke="white" stroke-width="0.8" stroke-linecap="round" stroke-linejoin="round"/>
<path d="M34.5332 3.91661L37.3665 2.75" stroke="white" stroke-width="0.8"/>
<path d="M39.6328 2.75L41.8995 3.91661" stroke="white" stroke-width="0.8"/>
<path d="M33 18.5V17H45.5V18.5H44.5C44.5 19.5 44.4 21.5 42 21.5C39.6 21.5 39 19.8333 39 19C39 19.8333 38.5 21.5 36.5 21.5C34.5 21.5 34 19.5 34 18.5H33Z" stroke="white" stroke-width="0.8" stroke-linecap="round" stroke-linejoin="round"/>
<mask id="path-35-inside-3" fill="white">
<path fill-rule="evenodd" clip-rule="evenodd" d="M32.5736 32.5004C32.5736 32.5004 35.3531 32.6059 35.4438 32.5004C35.507 32.4268 35.4821 33.0751 35.4612 33.6187C35.4521 33.855 35.4438 34.0715 35.4438 34.2004C35.4438 34.3364 35.5026 34.4266 35.5796 34.5447C35.7414 34.793 35.9835 35.1644 35.9281 36.3437L35.9281 39.0365C35.9281 40.1209 35.049 41 33.9646 41C32.8802 41 32.0011 40.1209 32.0011 39.0365L32.0011 36.3676C32.0004 36.3537 32 36.3397 32 36.3255C31.9999 36.2846 32.0003 36.2443 32.0011 36.2047L32.0011 35.8662L32.0181 35.8662C32.1155 34.6866 32.5739 34.2003 32.5739 34.2003L32.5736 32.5004Z"/>
</mask>
<path d="M35.4438 32.5004L34.9129 32.0441L34.9129 32.0441L35.4438 32.5004ZM32.5736 32.5004L32.6002 31.8009L31.8735 31.7733L31.8736 32.5005L32.5736 32.5004ZM35.4612 33.6187L36.1607 33.6456L36.1607 33.6456L35.4612 33.6187ZM35.4438 34.2004L36.1438 34.2003L36.1438 34.2003L35.4438 34.2004ZM35.5796 34.5447L34.9931 34.927L34.9931 34.927L35.5796 34.5447ZM35.9281 36.3437L35.2288 36.3109L35.2281 36.3273L35.2281 36.3437L35.9281 36.3437ZM32.0011 36.3676L32.7011 36.3676L32.7011 36.3505L32.7002 36.3333L32.0011 36.3676ZM32 36.3255L31.3 36.3266L32 36.3255ZM32.0011 36.2047L32.7011 36.2182L32.7011 36.2047L32.0011 36.2047ZM32.0011 35.8662L32.0011 35.1662L31.3011 35.1662L31.3011 35.8662L32.0011 35.8662ZM32.0181 35.8662L32.0181 36.5662L32.6626 36.5662L32.7157 35.9238L32.0181 35.8662ZM32.5739 34.2003L33.0832 34.6805L33.2739 34.4782L33.2739 34.2002L32.5739 34.2003ZM34.9129 32.0441C35.0336 31.9037 35.1744 31.8569 35.1872 31.8522C35.2269 31.8377 35.2556 31.8321 35.2605 31.8311C35.2726 31.8287 35.2678 31.8304 35.235 31.8332C35.1739 31.8384 35.0764 31.8426 34.9444 31.845C34.6843 31.8497 34.3387 31.8466 33.9878 31.8401C33.6387 31.8335 33.2916 31.8237 33.0313 31.8156C32.9013 31.8115 32.7933 31.8078 32.7178 31.8051C32.6801 31.8038 32.6505 31.8027 32.6305 31.802C32.6205 31.8016 32.6128 31.8013 32.6077 31.8012C32.6051 31.8011 32.6032 31.801 32.602 31.8009C32.6013 31.8009 32.6009 31.8009 32.6006 31.8009C32.6004 31.8009 32.6003 31.8009 32.6002 31.8009C32.6002 31.8009 32.6002 31.8009 32.6002 31.8009C32.6002 31.8009 32.6002 31.8009 32.5736 32.5004C32.5471 33.1999 32.5471 33.1999 32.5471 33.1999C32.5471 33.1999 32.5472 33.1999 32.5472 33.1999C32.5473 33.1999 32.5475 33.1999 32.5477 33.1999C32.5481 33.1999 32.5486 33.1999 32.5493 33.1999C32.5507 33.2 32.5528 33.2001 32.5555 33.2002C32.5609 33.2004 32.5689 33.2007 32.5792 33.2011C32.5999 33.2018 32.6302 33.2029 32.6686 33.2043C32.7455 33.207 32.8553 33.2107 32.9873 33.2149C33.251 33.2232 33.6045 33.2331 33.9616 33.2398C34.317 33.2464 34.6832 33.2499 34.9697 33.2448C35.111 33.2422 35.2456 33.2374 35.3538 33.2281C35.4057 33.2237 35.4699 33.2168 35.5327 33.2044C35.563 33.1984 35.6124 33.1874 35.6679 33.1671C35.6966 33.1566 35.8484 33.1036 35.9747 32.9566L34.9129 32.0441ZM36.1607 33.6456C36.1709 33.3781 36.183 33.0665 36.184 32.8311C36.1845 32.7196 36.1829 32.5947 36.1722 32.4941C36.1696 32.4692 36.1586 32.3428 36.1011 32.216C36.0883 32.1877 35.9679 31.9038 35.6284 31.8167C35.2169 31.7113 34.9586 31.9909 34.9129 32.0441L35.9747 32.9566C35.9369 33.0006 35.6858 33.2767 35.2809 33.1729C34.9479 33.0876 34.8335 32.8106 34.826 32.794C34.7791 32.6907 34.7764 32.6071 34.78 32.6412C34.7818 32.6584 34.7845 32.7158 34.784 32.8251C34.7831 33.0313 34.7723 33.3157 34.7617 33.5918L36.1607 33.6456ZM36.1438 34.2003C36.1438 34.0885 36.1513 33.8892 36.1607 33.6456L34.7617 33.5918C34.7529 33.8208 34.7438 34.0546 34.7438 34.2004L36.1438 34.2003ZM36.166 34.1625C36.1561 34.1473 36.1484 34.1355 36.1414 34.1245C36.1345 34.1138 36.1296 34.1059 36.1259 34.0997C36.1183 34.087 36.1186 34.0864 36.1217 34.0932C36.1253 34.1014 36.1316 34.1173 36.1366 34.1392C36.1417 34.1616 36.1438 34.1826 36.1438 34.2003L34.7438 34.2004C34.7438 34.5719 34.9277 34.8266 34.9931 34.927L36.166 34.1625ZM36.6273 36.3766C36.6573 35.7387 36.6093 35.2736 36.5107 34.9113C36.4079 34.5335 36.2592 34.3055 36.166 34.1625L34.9931 34.927C35.0618 35.0323 35.115 35.1141 35.1598 35.2789C35.2089 35.4592 35.2543 35.7695 35.2288 36.3109L36.6273 36.3766ZM35.2281 36.3437L35.2281 39.0365L36.6281 39.0365L36.6281 36.3437L35.2281 36.3437ZM35.2281 39.0365C35.2281 39.7343 34.6624 40.3 33.9646 40.3L33.9646 41.7C35.4356 41.7 36.6281 40.5075 36.6281 39.0365L35.2281 39.0365ZM33.9646 40.3C33.2668 40.3 32.7011 39.7343 32.7011 39.0365L31.3011 39.0365C31.3011 40.5075 32.4936 41.7 33.9646 41.7L33.9646 40.3ZM32.7011 39.0365L32.7011 36.3676L31.3011 36.3676L31.3011 39.0365L32.7011 39.0365ZM31.3 36.3266C31.3 36.3517 31.3007 36.3769 31.3019 36.4019L32.7002 36.3333C32.7001 36.3305 32.7 36.3276 32.7 36.3245L31.3 36.3266ZM31.3012 36.1913C31.3003 36.2358 31.2999 36.2809 31.3 36.3266L32.7 36.3245C32.7 36.2884 32.7003 36.2529 32.7009 36.2182L31.3012 36.1913ZM32.7011 36.2047L32.7011 35.8662L31.3011 35.8662L31.3011 36.2047L32.7011 36.2047ZM32.0011 36.5662L32.0181 36.5662L32.0181 35.1662L32.0011 35.1662L32.0011 36.5662ZM32.5739 34.2003C32.0646 33.7201 32.0643 33.7204 32.064 33.7207C32.064 33.7207 32.0637 33.721 32.0635 33.7212C32.0632 33.7216 32.0628 33.722 32.0624 33.7224C32.0617 33.7232 32.0609 33.724 32.0601 33.7249C32.0585 33.7266 32.0568 33.7285 32.055 33.7305C32.0513 33.7345 32.0473 33.739 32.0428 33.7441C32.0339 33.7542 32.0234 33.7665 32.0116 33.781C31.9879 33.8101 31.9588 33.848 31.926 33.8952C31.8603 33.9897 31.7801 34.121 31.6993 34.2925C31.537 34.6369 31.3761 35.1349 31.3204 35.8086L32.7157 35.9238C32.7574 35.4179 32.8744 35.0829 32.9657 34.8893C33.0117 34.7917 33.0522 34.7278 33.0755 34.6942C33.0872 34.6774 33.0947 34.6681 33.0964 34.6659C33.0973 34.6649 33.0968 34.6656 33.0946 34.668C33.0936 34.6692 33.0921 34.6709 33.0902 34.6729C33.0893 34.674 33.0882 34.6751 33.0871 34.6764C33.0865 34.677 33.0859 34.6777 33.0852 34.6783C33.0849 34.6787 33.0846 34.679 33.0843 34.6794C33.0841 34.6796 33.0838 34.6798 33.0838 34.6799C33.0835 34.6802 33.0832 34.6805 32.5739 34.2003ZM31.8736 32.5005L31.8739 34.2004L33.2739 34.2002L33.2736 32.5003L31.8736 32.5005Z" fill="white" mask="url(#path-35-inside-3)"/>
<path d="M33.3331 33.3501L33.3331 26.6729C33.3331 26.5922 33.3136 26.5128 33.2762 26.4413L32.9782 25.8713C32.9206 25.7611 32.9061 25.6335 32.9375 25.5132L33.2354 24.3736C33.293 24.1536 33.4917 24.0001 33.7192 24.0001L34.2802 24.0001C34.5077 24.0001 34.7064 24.1536 34.764 24.3736L35.0619 25.5132C35.0933 25.6335 35.0788 25.7611 35.0212 25.8713L34.7232 26.4413C34.6858 26.5128 34.6663 26.5922 34.6663 26.6729L34.6663 33.3501" stroke="white" stroke-width="0.7"/>
<path d="M32.425 33.3501C32.1903 33.3501 32 33.1598 32 32.9251C32 32.6904 32.1903 32.5001 32.425 32.5001L35.5747 32.5001C35.8094 32.5001 35.9997 32.6904 35.9997 32.9251C35.9997 33.1598 35.8094 33.3501 35.5747 33.3501L32.425 33.3501Z" fill="white"/>
<path d="M35.5541 39.301C34.2214 39.3002 34.2215 35.4749 35.5541 35.476" stroke="white" stroke-width="0.7"/>
<path d="M32.4458 35.4751C33.7786 35.4759 33.7784 39.3012 32.4458 39.3001" stroke="white" stroke-width="0.7"/>
<path d="M37.4 46C37.4 44.0118 39.0118 42.4 41 42.4H44.6V46C44.6 47.9882 42.9882 49.6 41 49.6C39.0118 49.6 37.4 47.9882 37.4 46Z" stroke="white" stroke-width="0.8"/>
<circle cx="41" cy="46" r="1.6" stroke="white" stroke-width="0.8"/>
<path d="M42.4 26.5C42.4 26.4448 42.4448 26.4 42.5 26.4H44.5C44.5552 26.4 44.6 26.4448 44.6 26.5V42.3281C44.6 42.3834 44.5552 42.4281 44.5 42.4281H42.5C42.4448 42.4281 42.4 42.3834 42.4 42.3281V26.5Z" stroke="white" stroke-width="0.8"/>
<rect x="40" y="26" width="5" height="1" rx="0.5" fill="white"/>
<path d="M42.5 28.5H43.5" stroke="white"/>
<path d="M42.5 31H43.5" stroke="white"/>
<path d="M42.5 33.5H43.5" stroke="white"/>
<path d="M42.5 36H43.5" stroke="white"/>
<path d="M42.5 38.5H43.5" stroke="white"/>
</svg>
