<svg width="25" height="18" viewBox="0 0 25 18" fill="none" xmlns="http://www.w3.org/2000/svg">
<path d="M24.3657 5.14769C24.3657 7.68396 24.3657 10.1328 24.3657 12.6691C24.3657 12.6691 24.3657 12.6691 24.3657 12.7565C24.2796 13.4562 24.1935 14.0684 24.1074 14.6806C23.8491 15.8175 23.2464 16.6046 22.2133 17.0419C21.6967 17.2169 21.1801 17.3043 20.6635 17.3918C19.8886 17.4792 19.1998 17.4792 18.425 17.5667C17.2196 17.6541 16.0142 17.6541 14.8088 17.6541H14.7227C14.5506 17.6541 14.4645 17.6541 14.2923 17.6541C14.1201 17.5667 13.9479 17.6541 13.7757 17.6541C12.5703 17.6541 11.2788 17.6541 10.0735 17.6541H9.98736C9.98736 17.5667 9.90126 17.6541 9.90126 17.6541C8.3515 17.6541 6.80174 17.5667 5.33807 17.4792C4.56319 17.3918 3.87441 17.3918 3.09953 17.2169C1.72196 16.867 0.860979 16.1674 0.516588 14.8555C0.344392 14.1558 0.258294 13.4562 0.172196 12.7565C0.0860979 11.8819 0.0860979 11.0948 0 10.2202V10.1328C0 9.34566 0 8.47108 0 7.68396C0 7.5965 0 7.5965 0 7.50905V7.42159C0 6.80938 0.0860979 6.28464 0.0860979 5.67243C0.172196 4.79786 0.258294 4.01074 0.43049 3.13616C0.602686 2.08667 1.20537 1.21209 2.23855 0.774802C2.75513 0.512428 3.35782 0.424971 3.96051 0.424971C4.73539 0.337513 5.51027 0.337513 6.19905 0.250055C7.31833 0.250055 8.5237 0.250055 9.64297 0.162598C9.72907 0.162598 9.72907 0.162598 9.81517 0.162598H9.90126C9.98736 0.162598 10.0735 0.162598 10.1596 0.162598C10.3318 0.250055 10.59 0.162598 10.7622 0.162598C11.7093 0.162598 12.6564 0.162598 13.6035 0.162598C13.7757 0.162598 13.9479 0.250055 14.2062 0.162598C14.2923 0.162598 14.4645 0.162598 14.5506 0.162598C14.5506 0.250055 14.6367 0.162598 14.6367 0.162598C16.0142 0.162598 17.3918 0.250055 18.8554 0.337513C19.8025 0.424971 20.6635 0.424971 21.5245 0.599886C22.6438 0.862259 23.5047 1.47446 23.9352 2.61141C24.1935 3.22362 24.1935 3.83582 24.2796 4.36057C24.2796 4.62294 24.2796 4.88531 24.3657 5.14769ZM9.81517 12.5816C11.9676 11.3572 14.034 10.1328 16.1864 8.82091C14.034 7.5965 11.9676 6.3721 9.81517 5.06023C9.81517 7.68396 9.81517 10.1328 9.81517 12.5816Z" fill="#1DAEFF"/>
</svg>
